<mxfile host="Electron" modified="2023-09-15T10:51:19.871Z" agent="Mozilla/5.0 (Macintosh; Intel Mac OS X 10_15_7) AppleWebKit/537.36 (KHTML, like Gecko) draw.io/21.7.5 Chrome/114.0.5735.289 Electron/25.8.1 Safari/537.36" etag="B3z5E3_TLZZqf9bPIje5" version="21.7.5" type="device">
  <diagram name="Page-1" id="a-By_vlKWL0iiULW9Bkw">
    <mxGraphModel dx="2667" dy="999" grid="1" gridSize="10" guides="1" tooltips="1" connect="1" arrows="1" fold="1" page="1" pageScale="1" pageWidth="850" pageHeight="1100" math="0" shadow="0">
      <root>
        <mxCell id="0" />
        <mxCell id="1" parent="0" />
        <mxCell id="5SNasLUA0fVGktQmLtoh-31" style="edgeStyle=orthogonalEdgeStyle;rounded=0;orthogonalLoop=1;jettySize=auto;html=1;entryX=0.535;entryY=0.025;entryDx=0;entryDy=0;entryPerimeter=0;strokeWidth=2;" parent="1" edge="1">
          <mxGeometry relative="1" as="geometry">
            <mxPoint x="-60" y="708" as="sourcePoint" />
            <mxPoint x="-59.950000000000045" y="753.5" as="targetPoint" />
          </mxGeometry>
        </mxCell>
        <mxCell id="OKZaaLTwBY9ERp_DFy4D-2" value="block cipher&lt;br style=&quot;font-size: 21px;&quot;&gt;encryption" style="rounded=0;whiteSpace=wrap;html=1;fontSize=21;strokeWidth=2;" parent="1" vertex="1">
          <mxGeometry x="-140" y="633" width="165" height="70" as="geometry" />
        </mxCell>
        <mxCell id="5SNasLUA0fVGktQmLtoh-3" value="" style="shape=table;startSize=0;container=1;collapsible=0;childLayout=tableLayout;strokeWidth=2;" parent="1" vertex="1">
          <mxGeometry x="-175" y="918" width="230" height="20" as="geometry" />
        </mxCell>
        <mxCell id="5SNasLUA0fVGktQmLtoh-4" value="" style="shape=tableRow;horizontal=0;startSize=0;swimlaneHead=0;swimlaneBody=0;strokeColor=inherit;top=0;left=0;bottom=0;right=0;collapsible=0;dropTarget=0;fillColor=none;points=[[0,0.5],[1,0.5]];portConstraint=eastwest;" parent="5SNasLUA0fVGktQmLtoh-3" vertex="1">
          <mxGeometry width="230" height="20" as="geometry" />
        </mxCell>
        <mxCell id="5SNasLUA0fVGktQmLtoh-5" value="" style="shape=partialRectangle;html=1;whiteSpace=wrap;connectable=0;strokeColor=inherit;overflow=hidden;fillColor=none;top=0;left=0;bottom=0;right=0;pointerEvents=1;" parent="5SNasLUA0fVGktQmLtoh-4" vertex="1">
          <mxGeometry width="23" height="20" as="geometry">
            <mxRectangle width="23" height="20" as="alternateBounds" />
          </mxGeometry>
        </mxCell>
        <mxCell id="5SNasLUA0fVGktQmLtoh-6" value="" style="shape=partialRectangle;html=1;whiteSpace=wrap;connectable=0;strokeColor=inherit;overflow=hidden;fillColor=none;top=0;left=0;bottom=0;right=0;pointerEvents=1;" parent="5SNasLUA0fVGktQmLtoh-4" vertex="1">
          <mxGeometry x="23" width="23" height="20" as="geometry">
            <mxRectangle width="23" height="20" as="alternateBounds" />
          </mxGeometry>
        </mxCell>
        <mxCell id="5SNasLUA0fVGktQmLtoh-7" value="" style="shape=partialRectangle;html=1;whiteSpace=wrap;connectable=0;strokeColor=inherit;overflow=hidden;fillColor=none;top=0;left=0;bottom=0;right=0;pointerEvents=1;" parent="5SNasLUA0fVGktQmLtoh-4" vertex="1">
          <mxGeometry x="46" width="23" height="20" as="geometry">
            <mxRectangle width="23" height="20" as="alternateBounds" />
          </mxGeometry>
        </mxCell>
        <mxCell id="5SNasLUA0fVGktQmLtoh-8" value="" style="shape=partialRectangle;html=1;whiteSpace=wrap;connectable=0;strokeColor=inherit;overflow=hidden;fillColor=none;top=0;left=0;bottom=0;right=0;pointerEvents=1;" parent="5SNasLUA0fVGktQmLtoh-4" vertex="1">
          <mxGeometry x="69" width="23" height="20" as="geometry">
            <mxRectangle width="23" height="20" as="alternateBounds" />
          </mxGeometry>
        </mxCell>
        <mxCell id="5SNasLUA0fVGktQmLtoh-9" value="" style="shape=partialRectangle;html=1;whiteSpace=wrap;connectable=0;strokeColor=inherit;overflow=hidden;fillColor=none;top=0;left=0;bottom=0;right=0;pointerEvents=1;" parent="5SNasLUA0fVGktQmLtoh-4" vertex="1">
          <mxGeometry x="92" width="23" height="20" as="geometry">
            <mxRectangle width="23" height="20" as="alternateBounds" />
          </mxGeometry>
        </mxCell>
        <mxCell id="5SNasLUA0fVGktQmLtoh-10" value="" style="shape=partialRectangle;html=1;whiteSpace=wrap;connectable=0;strokeColor=inherit;overflow=hidden;fillColor=none;top=0;left=0;bottom=0;right=0;pointerEvents=1;" parent="5SNasLUA0fVGktQmLtoh-4" vertex="1">
          <mxGeometry x="115" width="23" height="20" as="geometry">
            <mxRectangle width="23" height="20" as="alternateBounds" />
          </mxGeometry>
        </mxCell>
        <mxCell id="5SNasLUA0fVGktQmLtoh-11" value="" style="shape=partialRectangle;html=1;whiteSpace=wrap;connectable=0;strokeColor=inherit;overflow=hidden;fillColor=none;top=0;left=0;bottom=0;right=0;pointerEvents=1;" parent="5SNasLUA0fVGktQmLtoh-4" vertex="1">
          <mxGeometry x="138" width="23" height="20" as="geometry">
            <mxRectangle width="23" height="20" as="alternateBounds" />
          </mxGeometry>
        </mxCell>
        <mxCell id="5SNasLUA0fVGktQmLtoh-12" value="" style="shape=partialRectangle;html=1;whiteSpace=wrap;connectable=0;strokeColor=inherit;overflow=hidden;fillColor=none;top=0;left=0;bottom=0;right=0;pointerEvents=1;" parent="5SNasLUA0fVGktQmLtoh-4" vertex="1">
          <mxGeometry x="161" width="26" height="20" as="geometry">
            <mxRectangle width="26" height="20" as="alternateBounds" />
          </mxGeometry>
        </mxCell>
        <mxCell id="5SNasLUA0fVGktQmLtoh-13" value="" style="shape=partialRectangle;html=1;whiteSpace=wrap;connectable=0;strokeColor=inherit;overflow=hidden;fillColor=none;top=0;left=0;bottom=0;right=0;pointerEvents=1;" parent="5SNasLUA0fVGktQmLtoh-4" vertex="1">
          <mxGeometry x="187" width="20" height="20" as="geometry">
            <mxRectangle width="20" height="20" as="alternateBounds" />
          </mxGeometry>
        </mxCell>
        <mxCell id="5SNasLUA0fVGktQmLtoh-14" value="" style="shape=partialRectangle;html=1;whiteSpace=wrap;connectable=0;strokeColor=inherit;overflow=hidden;fillColor=none;top=0;left=0;bottom=0;right=0;pointerEvents=1;" parent="5SNasLUA0fVGktQmLtoh-4" vertex="1">
          <mxGeometry x="207" width="23" height="20" as="geometry">
            <mxRectangle width="23" height="20" as="alternateBounds" />
          </mxGeometry>
        </mxCell>
        <mxCell id="5SNasLUA0fVGktQmLtoh-15" value="" style="shape=table;startSize=0;container=1;collapsible=0;childLayout=tableLayout;strokeWidth=2;" parent="1" vertex="1">
          <mxGeometry x="-318" y="866" width="230" height="20" as="geometry" />
        </mxCell>
        <mxCell id="5SNasLUA0fVGktQmLtoh-16" value="" style="shape=tableRow;horizontal=0;startSize=0;swimlaneHead=0;swimlaneBody=0;strokeColor=inherit;top=0;left=0;bottom=0;right=0;collapsible=0;dropTarget=0;fillColor=none;points=[[0,0.5],[1,0.5]];portConstraint=eastwest;" parent="5SNasLUA0fVGktQmLtoh-15" vertex="1">
          <mxGeometry width="230" height="20" as="geometry" />
        </mxCell>
        <mxCell id="5SNasLUA0fVGktQmLtoh-17" value="" style="shape=partialRectangle;html=1;whiteSpace=wrap;connectable=0;strokeColor=inherit;overflow=hidden;fillColor=none;top=0;left=0;bottom=0;right=0;pointerEvents=1;" parent="5SNasLUA0fVGktQmLtoh-16" vertex="1">
          <mxGeometry width="23" height="20" as="geometry">
            <mxRectangle width="23" height="20" as="alternateBounds" />
          </mxGeometry>
        </mxCell>
        <mxCell id="5SNasLUA0fVGktQmLtoh-18" value="" style="shape=partialRectangle;html=1;whiteSpace=wrap;connectable=0;strokeColor=inherit;overflow=hidden;fillColor=none;top=0;left=0;bottom=0;right=0;pointerEvents=1;" parent="5SNasLUA0fVGktQmLtoh-16" vertex="1">
          <mxGeometry x="23" width="23" height="20" as="geometry">
            <mxRectangle width="23" height="20" as="alternateBounds" />
          </mxGeometry>
        </mxCell>
        <mxCell id="5SNasLUA0fVGktQmLtoh-19" value="" style="shape=partialRectangle;html=1;whiteSpace=wrap;connectable=0;strokeColor=inherit;overflow=hidden;fillColor=none;top=0;left=0;bottom=0;right=0;pointerEvents=1;" parent="5SNasLUA0fVGktQmLtoh-16" vertex="1">
          <mxGeometry x="46" width="23" height="20" as="geometry">
            <mxRectangle width="23" height="20" as="alternateBounds" />
          </mxGeometry>
        </mxCell>
        <mxCell id="5SNasLUA0fVGktQmLtoh-20" value="" style="shape=partialRectangle;html=1;whiteSpace=wrap;connectable=0;strokeColor=inherit;overflow=hidden;fillColor=none;top=0;left=0;bottom=0;right=0;pointerEvents=1;" parent="5SNasLUA0fVGktQmLtoh-16" vertex="1">
          <mxGeometry x="69" width="26" height="20" as="geometry">
            <mxRectangle width="26" height="20" as="alternateBounds" />
          </mxGeometry>
        </mxCell>
        <mxCell id="5SNasLUA0fVGktQmLtoh-21" value="" style="shape=partialRectangle;html=1;whiteSpace=wrap;connectable=0;strokeColor=inherit;overflow=hidden;fillColor=none;top=0;left=0;bottom=0;right=0;pointerEvents=1;" parent="5SNasLUA0fVGktQmLtoh-16" vertex="1">
          <mxGeometry x="95" width="20" height="20" as="geometry">
            <mxRectangle width="20" height="20" as="alternateBounds" />
          </mxGeometry>
        </mxCell>
        <mxCell id="5SNasLUA0fVGktQmLtoh-22" value="" style="shape=partialRectangle;html=1;whiteSpace=wrap;connectable=0;strokeColor=inherit;overflow=hidden;fillColor=none;top=0;left=0;bottom=0;right=0;pointerEvents=1;" parent="5SNasLUA0fVGktQmLtoh-16" vertex="1">
          <mxGeometry x="115" width="23" height="20" as="geometry">
            <mxRectangle width="23" height="20" as="alternateBounds" />
          </mxGeometry>
        </mxCell>
        <mxCell id="5SNasLUA0fVGktQmLtoh-23" value="" style="shape=partialRectangle;html=1;whiteSpace=wrap;connectable=0;strokeColor=inherit;overflow=hidden;fillColor=none;top=0;left=0;bottom=0;right=0;pointerEvents=1;" parent="5SNasLUA0fVGktQmLtoh-16" vertex="1">
          <mxGeometry x="138" width="23" height="20" as="geometry">
            <mxRectangle width="23" height="20" as="alternateBounds" />
          </mxGeometry>
        </mxCell>
        <mxCell id="5SNasLUA0fVGktQmLtoh-24" value="" style="shape=partialRectangle;html=1;whiteSpace=wrap;connectable=0;strokeColor=inherit;overflow=hidden;fillColor=none;top=0;left=0;bottom=0;right=0;pointerEvents=1;" parent="5SNasLUA0fVGktQmLtoh-16" vertex="1">
          <mxGeometry x="161" width="23" height="20" as="geometry">
            <mxRectangle width="23" height="20" as="alternateBounds" />
          </mxGeometry>
        </mxCell>
        <mxCell id="5SNasLUA0fVGktQmLtoh-25" value="" style="shape=partialRectangle;html=1;whiteSpace=wrap;connectable=0;strokeColor=inherit;overflow=hidden;fillColor=none;top=0;left=0;bottom=0;right=0;pointerEvents=1;" parent="5SNasLUA0fVGktQmLtoh-16" vertex="1">
          <mxGeometry x="184" width="23" height="20" as="geometry">
            <mxRectangle width="23" height="20" as="alternateBounds" />
          </mxGeometry>
        </mxCell>
        <mxCell id="5SNasLUA0fVGktQmLtoh-26" value="" style="shape=partialRectangle;html=1;whiteSpace=wrap;connectable=0;strokeColor=inherit;overflow=hidden;fillColor=none;top=0;left=0;bottom=0;right=0;pointerEvents=1;" parent="5SNasLUA0fVGktQmLtoh-16" vertex="1">
          <mxGeometry x="207" width="23" height="20" as="geometry">
            <mxRectangle width="23" height="20" as="alternateBounds" />
          </mxGeometry>
        </mxCell>
        <mxCell id="5SNasLUA0fVGktQmLtoh-27" value="&lt;font style=&quot;font-size: 21px;&quot;&gt;Ciphertext&lt;/font&gt;" style="text;html=1;align=center;verticalAlign=middle;resizable=0;points=[];autosize=1;strokeColor=none;fillColor=none;" parent="1" vertex="1">
          <mxGeometry x="-120" y="932" width="120" height="40" as="geometry" />
        </mxCell>
        <mxCell id="5SNasLUA0fVGktQmLtoh-28" value="&lt;font style=&quot;font-size: 21px;&quot;&gt;Plaintext&lt;/font&gt;" style="text;html=1;align=center;verticalAlign=middle;resizable=0;points=[];autosize=1;strokeColor=none;fillColor=none;" parent="1" vertex="1">
          <mxGeometry x="-240" y="828" width="100" height="40" as="geometry" />
        </mxCell>
        <mxCell id="5SNasLUA0fVGktQmLtoh-30" style="edgeStyle=orthogonalEdgeStyle;rounded=0;orthogonalLoop=1;jettySize=auto;html=1;entryX=0;entryY=0.5;entryDx=0;entryDy=0;strokeWidth=2;" parent="1" edge="1">
          <mxGeometry relative="1" as="geometry">
            <mxPoint x="-215" y="668" as="sourcePoint" />
            <mxPoint x="-160" y="668" as="targetPoint" />
          </mxGeometry>
        </mxCell>
        <mxCell id="5SNasLUA0fVGktQmLtoh-29" value="&lt;font style=&quot;font-size: 21px;&quot;&gt;Key&lt;/font&gt;" style="text;html=1;align=center;verticalAlign=middle;resizable=0;points=[];autosize=1;strokeColor=none;fillColor=none;" parent="1" vertex="1">
          <mxGeometry x="-270" y="648" width="60" height="40" as="geometry" />
        </mxCell>
        <mxCell id="5SNasLUA0fVGktQmLtoh-32" value="&lt;font style=&quot;font-size: 21px;&quot;&gt;Key&lt;/font&gt;" style="text;html=1;align=center;verticalAlign=middle;resizable=0;points=[];autosize=1;strokeColor=none;fillColor=none;" parent="1" vertex="1">
          <mxGeometry x="-89" y="550" width="60" height="40" as="geometry" />
        </mxCell>
        <mxCell id="5SNasLUA0fVGktQmLtoh-33" style="edgeStyle=orthogonalEdgeStyle;rounded=0;orthogonalLoop=1;jettySize=auto;html=1;strokeWidth=2;" parent="1" edge="1">
          <mxGeometry relative="1" as="geometry">
            <mxPoint x="-60" y="587" as="sourcePoint" />
            <mxPoint x="-60" y="627" as="targetPoint" />
          </mxGeometry>
        </mxCell>
        <mxCell id="5SNasLUA0fVGktQmLtoh-34" value="" style="shape=table;startSize=0;container=1;collapsible=0;childLayout=tableLayout;strokeWidth=2;" parent="1" vertex="1">
          <mxGeometry x="-370" y="760" width="230" height="20" as="geometry" />
        </mxCell>
        <mxCell id="5SNasLUA0fVGktQmLtoh-35" value="" style="shape=tableRow;horizontal=0;startSize=0;swimlaneHead=0;swimlaneBody=0;strokeColor=inherit;top=0;left=0;bottom=0;right=0;collapsible=0;dropTarget=0;fillColor=none;points=[[0,0.5],[1,0.5]];portConstraint=eastwest;" parent="5SNasLUA0fVGktQmLtoh-34" vertex="1">
          <mxGeometry width="230" height="20" as="geometry" />
        </mxCell>
        <mxCell id="5SNasLUA0fVGktQmLtoh-36" value="" style="shape=partialRectangle;html=1;whiteSpace=wrap;connectable=0;strokeColor=inherit;overflow=hidden;fillColor=none;top=0;left=0;bottom=0;right=0;pointerEvents=1;" parent="5SNasLUA0fVGktQmLtoh-35" vertex="1">
          <mxGeometry width="23" height="20" as="geometry">
            <mxRectangle width="23" height="20" as="alternateBounds" />
          </mxGeometry>
        </mxCell>
        <mxCell id="5SNasLUA0fVGktQmLtoh-37" value="" style="shape=partialRectangle;html=1;whiteSpace=wrap;connectable=0;strokeColor=inherit;overflow=hidden;fillColor=none;top=0;left=0;bottom=0;right=0;pointerEvents=1;" parent="5SNasLUA0fVGktQmLtoh-35" vertex="1">
          <mxGeometry x="23" width="23" height="20" as="geometry">
            <mxRectangle width="23" height="20" as="alternateBounds" />
          </mxGeometry>
        </mxCell>
        <mxCell id="5SNasLUA0fVGktQmLtoh-38" value="" style="shape=partialRectangle;html=1;whiteSpace=wrap;connectable=0;strokeColor=inherit;overflow=hidden;fillColor=none;top=0;left=0;bottom=0;right=0;pointerEvents=1;" parent="5SNasLUA0fVGktQmLtoh-35" vertex="1">
          <mxGeometry x="46" width="23" height="20" as="geometry">
            <mxRectangle width="23" height="20" as="alternateBounds" />
          </mxGeometry>
        </mxCell>
        <mxCell id="5SNasLUA0fVGktQmLtoh-39" value="" style="shape=partialRectangle;html=1;whiteSpace=wrap;connectable=0;strokeColor=inherit;overflow=hidden;fillColor=none;top=0;left=0;bottom=0;right=0;pointerEvents=1;" parent="5SNasLUA0fVGktQmLtoh-35" vertex="1">
          <mxGeometry x="69" width="23" height="20" as="geometry">
            <mxRectangle width="23" height="20" as="alternateBounds" />
          </mxGeometry>
        </mxCell>
        <mxCell id="5SNasLUA0fVGktQmLtoh-40" value="" style="shape=partialRectangle;html=1;whiteSpace=wrap;connectable=0;strokeColor=inherit;overflow=hidden;fillColor=none;top=0;left=0;bottom=0;right=0;pointerEvents=1;" parent="5SNasLUA0fVGktQmLtoh-35" vertex="1">
          <mxGeometry x="92" width="23" height="20" as="geometry">
            <mxRectangle width="23" height="20" as="alternateBounds" />
          </mxGeometry>
        </mxCell>
        <mxCell id="5SNasLUA0fVGktQmLtoh-41" value="" style="shape=partialRectangle;html=1;whiteSpace=wrap;connectable=0;strokeColor=inherit;overflow=hidden;fillColor=none;top=0;left=0;bottom=0;right=0;pointerEvents=1;" parent="5SNasLUA0fVGktQmLtoh-35" vertex="1">
          <mxGeometry x="115" width="23" height="20" as="geometry">
            <mxRectangle width="23" height="20" as="alternateBounds" />
          </mxGeometry>
        </mxCell>
        <mxCell id="5SNasLUA0fVGktQmLtoh-42" value="" style="shape=partialRectangle;html=1;whiteSpace=wrap;connectable=0;strokeColor=inherit;overflow=hidden;fillColor=none;top=0;left=0;bottom=0;right=0;pointerEvents=1;" parent="5SNasLUA0fVGktQmLtoh-35" vertex="1">
          <mxGeometry x="138" width="23" height="20" as="geometry">
            <mxRectangle width="23" height="20" as="alternateBounds" />
          </mxGeometry>
        </mxCell>
        <mxCell id="5SNasLUA0fVGktQmLtoh-43" value="" style="shape=partialRectangle;html=1;whiteSpace=wrap;connectable=0;strokeColor=inherit;overflow=hidden;fillColor=none;top=0;left=0;bottom=0;right=0;pointerEvents=1;" parent="5SNasLUA0fVGktQmLtoh-35" vertex="1">
          <mxGeometry x="161" width="23" height="20" as="geometry">
            <mxRectangle width="23" height="20" as="alternateBounds" />
          </mxGeometry>
        </mxCell>
        <mxCell id="5SNasLUA0fVGktQmLtoh-44" value="" style="shape=partialRectangle;html=1;whiteSpace=wrap;connectable=0;strokeColor=inherit;overflow=hidden;fillColor=none;top=0;left=0;bottom=0;right=0;pointerEvents=1;" parent="5SNasLUA0fVGktQmLtoh-35" vertex="1">
          <mxGeometry x="184" width="23" height="20" as="geometry">
            <mxRectangle width="23" height="20" as="alternateBounds" />
          </mxGeometry>
        </mxCell>
        <mxCell id="5SNasLUA0fVGktQmLtoh-45" value="" style="shape=partialRectangle;html=1;whiteSpace=wrap;connectable=0;strokeColor=inherit;overflow=hidden;fillColor=none;top=0;left=0;bottom=0;right=0;pointerEvents=1;" parent="5SNasLUA0fVGktQmLtoh-35" vertex="1">
          <mxGeometry x="207" width="23" height="20" as="geometry">
            <mxRectangle width="23" height="20" as="alternateBounds" />
          </mxGeometry>
        </mxCell>
        <mxCell id="5SNasLUA0fVGktQmLtoh-46" value="&lt;font style=&quot;font-size: 21px;&quot;&gt;Initialization Vector (IV)&lt;/font&gt;" style="text;html=1;align=center;verticalAlign=middle;resizable=0;points=[];autosize=1;strokeColor=none;fillColor=none;" parent="1" vertex="1">
          <mxGeometry x="-380" y="720" width="240" height="40" as="geometry" />
        </mxCell>
        <mxCell id="5SNasLUA0fVGktQmLtoh-47" value="" style="shape=image;verticalLabelPosition=bottom;labelBackgroundColor=default;verticalAlign=top;aspect=fixed;imageAspect=0;image=https://images.freeimages.com/vhq/images/previews/20d/logic-xor-symbol-clip-art-76039.jpg;" parent="1" vertex="1">
          <mxGeometry x="-75" y="755" width="30" height="30" as="geometry" />
        </mxCell>
        <mxCell id="5SNasLUA0fVGktQmLtoh-48" style="edgeStyle=orthogonalEdgeStyle;rounded=0;orthogonalLoop=1;jettySize=auto;html=1;entryX=0.535;entryY=0.025;entryDx=0;entryDy=0;entryPerimeter=0;strokeWidth=2;" parent="1" edge="1">
          <mxGeometry relative="1" as="geometry">
            <mxPoint x="-59" y="791" as="sourcePoint" />
            <mxPoint x="-58.950000000000045" y="836.5" as="targetPoint" />
          </mxGeometry>
        </mxCell>
        <mxCell id="5SNasLUA0fVGktQmLtoh-49" value="" style="shape=image;verticalLabelPosition=bottom;labelBackgroundColor=default;verticalAlign=top;aspect=fixed;imageAspect=0;image=https://images.freeimages.com/vhq/images/previews/20d/logic-xor-symbol-clip-art-76039.jpg;" parent="1" vertex="1">
          <mxGeometry x="-74" y="838" width="30" height="30" as="geometry" />
        </mxCell>
        <mxCell id="5SNasLUA0fVGktQmLtoh-50" style="edgeStyle=orthogonalEdgeStyle;rounded=0;orthogonalLoop=1;jettySize=auto;html=1;entryX=0.535;entryY=0.025;entryDx=0;entryDy=0;entryPerimeter=0;strokeWidth=2;" parent="1" edge="1">
          <mxGeometry relative="1" as="geometry">
            <mxPoint x="-59" y="870" as="sourcePoint" />
            <mxPoint x="-58.950000000000045" y="915.5" as="targetPoint" />
          </mxGeometry>
        </mxCell>
        <mxCell id="5SNasLUA0fVGktQmLtoh-51" style="edgeStyle=orthogonalEdgeStyle;rounded=0;orthogonalLoop=1;jettySize=auto;html=1;entryX=0;entryY=0.5;entryDx=0;entryDy=0;strokeWidth=2;" parent="1" edge="1">
          <mxGeometry relative="1" as="geometry">
            <mxPoint x="-133" y="769" as="sourcePoint" />
            <mxPoint x="-78" y="769" as="targetPoint" />
          </mxGeometry>
        </mxCell>
        <mxCell id="5SNasLUA0fVGktQmLtoh-52" style="edgeStyle=orthogonalEdgeStyle;rounded=0;orthogonalLoop=1;jettySize=auto;html=1;entryX=0;entryY=0.5;entryDx=0;entryDy=0;strokeWidth=2;" parent="1" edge="1">
          <mxGeometry relative="1" as="geometry">
            <mxPoint x="-132" y="851" as="sourcePoint" />
            <mxPoint x="-77" y="851" as="targetPoint" />
          </mxGeometry>
        </mxCell>
        <mxCell id="5SNasLUA0fVGktQmLtoh-54" value="block cipher&lt;br style=&quot;font-size: 21px;&quot;&gt;encryption" style="rounded=0;whiteSpace=wrap;html=1;fontSize=21;strokeWidth=2;" parent="1" vertex="1">
          <mxGeometry x="210" y="710" width="190" height="70" as="geometry" />
        </mxCell>
        <mxCell id="5SNasLUA0fVGktQmLtoh-55" value="" style="shape=table;startSize=0;container=1;collapsible=0;childLayout=tableLayout;strokeWidth=2;" parent="1" vertex="1">
          <mxGeometry x="190" y="918" width="230" height="20" as="geometry" />
        </mxCell>
        <mxCell id="5SNasLUA0fVGktQmLtoh-56" value="" style="shape=tableRow;horizontal=0;startSize=0;swimlaneHead=0;swimlaneBody=0;strokeColor=inherit;top=0;left=0;bottom=0;right=0;collapsible=0;dropTarget=0;fillColor=none;points=[[0,0.5],[1,0.5]];portConstraint=eastwest;" parent="5SNasLUA0fVGktQmLtoh-55" vertex="1">
          <mxGeometry width="230" height="20" as="geometry" />
        </mxCell>
        <mxCell id="5SNasLUA0fVGktQmLtoh-57" value="" style="shape=partialRectangle;html=1;whiteSpace=wrap;connectable=0;strokeColor=inherit;overflow=hidden;fillColor=none;top=0;left=0;bottom=0;right=0;pointerEvents=1;" parent="5SNasLUA0fVGktQmLtoh-56" vertex="1">
          <mxGeometry width="23" height="20" as="geometry">
            <mxRectangle width="23" height="20" as="alternateBounds" />
          </mxGeometry>
        </mxCell>
        <mxCell id="5SNasLUA0fVGktQmLtoh-58" value="" style="shape=partialRectangle;html=1;whiteSpace=wrap;connectable=0;strokeColor=inherit;overflow=hidden;fillColor=none;top=0;left=0;bottom=0;right=0;pointerEvents=1;" parent="5SNasLUA0fVGktQmLtoh-56" vertex="1">
          <mxGeometry x="23" width="23" height="20" as="geometry">
            <mxRectangle width="23" height="20" as="alternateBounds" />
          </mxGeometry>
        </mxCell>
        <mxCell id="5SNasLUA0fVGktQmLtoh-59" value="" style="shape=partialRectangle;html=1;whiteSpace=wrap;connectable=0;strokeColor=inherit;overflow=hidden;fillColor=none;top=0;left=0;bottom=0;right=0;pointerEvents=1;" parent="5SNasLUA0fVGktQmLtoh-56" vertex="1">
          <mxGeometry x="46" width="23" height="20" as="geometry">
            <mxRectangle width="23" height="20" as="alternateBounds" />
          </mxGeometry>
        </mxCell>
        <mxCell id="5SNasLUA0fVGktQmLtoh-60" value="" style="shape=partialRectangle;html=1;whiteSpace=wrap;connectable=0;strokeColor=inherit;overflow=hidden;fillColor=none;top=0;left=0;bottom=0;right=0;pointerEvents=1;" parent="5SNasLUA0fVGktQmLtoh-56" vertex="1">
          <mxGeometry x="69" width="23" height="20" as="geometry">
            <mxRectangle width="23" height="20" as="alternateBounds" />
          </mxGeometry>
        </mxCell>
        <mxCell id="5SNasLUA0fVGktQmLtoh-61" value="" style="shape=partialRectangle;html=1;whiteSpace=wrap;connectable=0;strokeColor=inherit;overflow=hidden;fillColor=none;top=0;left=0;bottom=0;right=0;pointerEvents=1;" parent="5SNasLUA0fVGktQmLtoh-56" vertex="1">
          <mxGeometry x="92" width="23" height="20" as="geometry">
            <mxRectangle width="23" height="20" as="alternateBounds" />
          </mxGeometry>
        </mxCell>
        <mxCell id="5SNasLUA0fVGktQmLtoh-62" value="" style="shape=partialRectangle;html=1;whiteSpace=wrap;connectable=0;strokeColor=inherit;overflow=hidden;fillColor=none;top=0;left=0;bottom=0;right=0;pointerEvents=1;" parent="5SNasLUA0fVGktQmLtoh-56" vertex="1">
          <mxGeometry x="115" width="23" height="20" as="geometry">
            <mxRectangle width="23" height="20" as="alternateBounds" />
          </mxGeometry>
        </mxCell>
        <mxCell id="5SNasLUA0fVGktQmLtoh-63" value="" style="shape=partialRectangle;html=1;whiteSpace=wrap;connectable=0;strokeColor=inherit;overflow=hidden;fillColor=none;top=0;left=0;bottom=0;right=0;pointerEvents=1;" parent="5SNasLUA0fVGktQmLtoh-56" vertex="1">
          <mxGeometry x="138" width="23" height="20" as="geometry">
            <mxRectangle width="23" height="20" as="alternateBounds" />
          </mxGeometry>
        </mxCell>
        <mxCell id="5SNasLUA0fVGktQmLtoh-64" value="" style="shape=partialRectangle;html=1;whiteSpace=wrap;connectable=0;strokeColor=inherit;overflow=hidden;fillColor=none;top=0;left=0;bottom=0;right=0;pointerEvents=1;" parent="5SNasLUA0fVGktQmLtoh-56" vertex="1">
          <mxGeometry x="161" width="23" height="20" as="geometry">
            <mxRectangle width="23" height="20" as="alternateBounds" />
          </mxGeometry>
        </mxCell>
        <mxCell id="5SNasLUA0fVGktQmLtoh-65" value="" style="shape=partialRectangle;html=1;whiteSpace=wrap;connectable=0;strokeColor=inherit;overflow=hidden;fillColor=none;top=0;left=0;bottom=0;right=0;pointerEvents=1;" parent="5SNasLUA0fVGktQmLtoh-56" vertex="1">
          <mxGeometry x="184" width="23" height="20" as="geometry">
            <mxRectangle width="23" height="20" as="alternateBounds" />
          </mxGeometry>
        </mxCell>
        <mxCell id="5SNasLUA0fVGktQmLtoh-66" value="" style="shape=partialRectangle;html=1;whiteSpace=wrap;connectable=0;strokeColor=inherit;overflow=hidden;fillColor=none;top=0;left=0;bottom=0;right=0;pointerEvents=1;" parent="5SNasLUA0fVGktQmLtoh-56" vertex="1">
          <mxGeometry x="207" width="23" height="20" as="geometry">
            <mxRectangle width="23" height="20" as="alternateBounds" />
          </mxGeometry>
        </mxCell>
        <mxCell id="5SNasLUA0fVGktQmLtoh-67" value="" style="shape=table;startSize=0;container=1;collapsible=0;childLayout=tableLayout;strokeWidth=2;" parent="1" vertex="1">
          <mxGeometry x="61" y="868" width="230" height="20" as="geometry" />
        </mxCell>
        <mxCell id="5SNasLUA0fVGktQmLtoh-68" value="" style="shape=tableRow;horizontal=0;startSize=0;swimlaneHead=0;swimlaneBody=0;strokeColor=inherit;top=0;left=0;bottom=0;right=0;collapsible=0;dropTarget=0;fillColor=none;points=[[0,0.5],[1,0.5]];portConstraint=eastwest;" parent="5SNasLUA0fVGktQmLtoh-67" vertex="1">
          <mxGeometry width="230" height="20" as="geometry" />
        </mxCell>
        <mxCell id="5SNasLUA0fVGktQmLtoh-69" value="" style="shape=partialRectangle;html=1;whiteSpace=wrap;connectable=0;strokeColor=inherit;overflow=hidden;fillColor=none;top=0;left=0;bottom=0;right=0;pointerEvents=1;" parent="5SNasLUA0fVGktQmLtoh-68" vertex="1">
          <mxGeometry width="23" height="20" as="geometry">
            <mxRectangle width="23" height="20" as="alternateBounds" />
          </mxGeometry>
        </mxCell>
        <mxCell id="5SNasLUA0fVGktQmLtoh-70" value="" style="shape=partialRectangle;html=1;whiteSpace=wrap;connectable=0;strokeColor=inherit;overflow=hidden;fillColor=none;top=0;left=0;bottom=0;right=0;pointerEvents=1;" parent="5SNasLUA0fVGktQmLtoh-68" vertex="1">
          <mxGeometry x="23" width="23" height="20" as="geometry">
            <mxRectangle width="23" height="20" as="alternateBounds" />
          </mxGeometry>
        </mxCell>
        <mxCell id="5SNasLUA0fVGktQmLtoh-71" value="" style="shape=partialRectangle;html=1;whiteSpace=wrap;connectable=0;strokeColor=inherit;overflow=hidden;fillColor=none;top=0;left=0;bottom=0;right=0;pointerEvents=1;" parent="5SNasLUA0fVGktQmLtoh-68" vertex="1">
          <mxGeometry x="46" width="23" height="20" as="geometry">
            <mxRectangle width="23" height="20" as="alternateBounds" />
          </mxGeometry>
        </mxCell>
        <mxCell id="5SNasLUA0fVGktQmLtoh-72" value="" style="shape=partialRectangle;html=1;whiteSpace=wrap;connectable=0;strokeColor=inherit;overflow=hidden;fillColor=none;top=0;left=0;bottom=0;right=0;pointerEvents=1;" parent="5SNasLUA0fVGktQmLtoh-68" vertex="1">
          <mxGeometry x="69" width="23" height="20" as="geometry">
            <mxRectangle width="23" height="20" as="alternateBounds" />
          </mxGeometry>
        </mxCell>
        <mxCell id="5SNasLUA0fVGktQmLtoh-73" value="" style="shape=partialRectangle;html=1;whiteSpace=wrap;connectable=0;strokeColor=inherit;overflow=hidden;fillColor=none;top=0;left=0;bottom=0;right=0;pointerEvents=1;" parent="5SNasLUA0fVGktQmLtoh-68" vertex="1">
          <mxGeometry x="92" width="26" height="20" as="geometry">
            <mxRectangle width="26" height="20" as="alternateBounds" />
          </mxGeometry>
        </mxCell>
        <mxCell id="5SNasLUA0fVGktQmLtoh-74" value="" style="shape=partialRectangle;html=1;whiteSpace=wrap;connectable=0;strokeColor=inherit;overflow=hidden;fillColor=none;top=0;left=0;bottom=0;right=0;pointerEvents=1;" parent="5SNasLUA0fVGktQmLtoh-68" vertex="1">
          <mxGeometry x="118" width="20" height="20" as="geometry">
            <mxRectangle width="20" height="20" as="alternateBounds" />
          </mxGeometry>
        </mxCell>
        <mxCell id="5SNasLUA0fVGktQmLtoh-75" value="" style="shape=partialRectangle;html=1;whiteSpace=wrap;connectable=0;strokeColor=inherit;overflow=hidden;fillColor=none;top=0;left=0;bottom=0;right=0;pointerEvents=1;" parent="5SNasLUA0fVGktQmLtoh-68" vertex="1">
          <mxGeometry x="138" width="23" height="20" as="geometry">
            <mxRectangle width="23" height="20" as="alternateBounds" />
          </mxGeometry>
        </mxCell>
        <mxCell id="5SNasLUA0fVGktQmLtoh-76" value="" style="shape=partialRectangle;html=1;whiteSpace=wrap;connectable=0;strokeColor=inherit;overflow=hidden;fillColor=none;top=0;left=0;bottom=0;right=0;pointerEvents=1;" parent="5SNasLUA0fVGktQmLtoh-68" vertex="1">
          <mxGeometry x="161" width="23" height="20" as="geometry">
            <mxRectangle width="23" height="20" as="alternateBounds" />
          </mxGeometry>
        </mxCell>
        <mxCell id="5SNasLUA0fVGktQmLtoh-77" value="" style="shape=partialRectangle;html=1;whiteSpace=wrap;connectable=0;strokeColor=inherit;overflow=hidden;fillColor=none;top=0;left=0;bottom=0;right=0;pointerEvents=1;" parent="5SNasLUA0fVGktQmLtoh-68" vertex="1">
          <mxGeometry x="184" width="23" height="20" as="geometry">
            <mxRectangle width="23" height="20" as="alternateBounds" />
          </mxGeometry>
        </mxCell>
        <mxCell id="5SNasLUA0fVGktQmLtoh-78" value="" style="shape=partialRectangle;html=1;whiteSpace=wrap;connectable=0;strokeColor=inherit;overflow=hidden;fillColor=none;top=0;left=0;bottom=0;right=0;pointerEvents=1;" parent="5SNasLUA0fVGktQmLtoh-68" vertex="1">
          <mxGeometry x="207" width="23" height="20" as="geometry">
            <mxRectangle width="23" height="20" as="alternateBounds" />
          </mxGeometry>
        </mxCell>
        <mxCell id="5SNasLUA0fVGktQmLtoh-79" value="&lt;font style=&quot;font-size: 21px;&quot;&gt;Ciphertext&lt;/font&gt;" style="text;html=1;align=center;verticalAlign=middle;resizable=0;points=[];autosize=1;strokeColor=none;fillColor=none;" parent="1" vertex="1">
          <mxGeometry x="234" y="932" width="120" height="40" as="geometry" />
        </mxCell>
        <mxCell id="5SNasLUA0fVGktQmLtoh-80" value="&lt;font style=&quot;font-size: 21px;&quot;&gt;Plaintext&lt;/font&gt;" style="text;html=1;align=center;verticalAlign=middle;resizable=0;points=[];autosize=1;strokeColor=none;fillColor=none;" parent="1" vertex="1">
          <mxGeometry x="126" y="828" width="100" height="40" as="geometry" />
        </mxCell>
        <mxCell id="5SNasLUA0fVGktQmLtoh-81" style="edgeStyle=orthogonalEdgeStyle;rounded=0;orthogonalLoop=1;jettySize=auto;html=1;entryX=0;entryY=0.5;entryDx=0;entryDy=0;strokeWidth=2;" parent="1" edge="1">
          <mxGeometry relative="1" as="geometry">
            <mxPoint x="150" y="745" as="sourcePoint" />
            <mxPoint x="205" y="745" as="targetPoint" />
          </mxGeometry>
        </mxCell>
        <mxCell id="5SNasLUA0fVGktQmLtoh-82" value="&lt;font style=&quot;font-size: 21px;&quot;&gt;Key&lt;/font&gt;" style="text;html=1;align=center;verticalAlign=middle;resizable=0;points=[];autosize=1;strokeColor=none;fillColor=none;" parent="1" vertex="1">
          <mxGeometry x="95" y="725" width="60" height="40" as="geometry" />
        </mxCell>
        <mxCell id="5SNasLUA0fVGktQmLtoh-84" style="edgeStyle=orthogonalEdgeStyle;rounded=0;orthogonalLoop=1;jettySize=auto;html=1;strokeWidth=2;" parent="1" edge="1">
          <mxGeometry relative="1" as="geometry">
            <mxPoint x="294" y="660" as="sourcePoint" />
            <mxPoint x="304" y="700" as="targetPoint" />
            <Array as="points">
              <mxPoint x="304" y="660" />
              <mxPoint x="304" y="700" />
            </Array>
          </mxGeometry>
        </mxCell>
        <mxCell id="5SNasLUA0fVGktQmLtoh-99" style="edgeStyle=orthogonalEdgeStyle;rounded=0;orthogonalLoop=1;jettySize=auto;html=1;entryX=0.535;entryY=0.025;entryDx=0;entryDy=0;entryPerimeter=0;strokeWidth=2;" parent="1" edge="1">
          <mxGeometry relative="1" as="geometry">
            <mxPoint x="306" y="791" as="sourcePoint" />
            <mxPoint x="306.04999999999995" y="836.5" as="targetPoint" />
          </mxGeometry>
        </mxCell>
        <mxCell id="5SNasLUA0fVGktQmLtoh-100" value="" style="shape=image;verticalLabelPosition=bottom;labelBackgroundColor=default;verticalAlign=top;aspect=fixed;imageAspect=0;image=https://images.freeimages.com/vhq/images/previews/20d/logic-xor-symbol-clip-art-76039.jpg;" parent="1" vertex="1">
          <mxGeometry x="291" y="838" width="30" height="30" as="geometry" />
        </mxCell>
        <mxCell id="5SNasLUA0fVGktQmLtoh-101" style="edgeStyle=orthogonalEdgeStyle;rounded=0;orthogonalLoop=1;jettySize=auto;html=1;entryX=0.535;entryY=0.025;entryDx=0;entryDy=0;entryPerimeter=0;strokeWidth=2;" parent="1" edge="1">
          <mxGeometry relative="1" as="geometry">
            <mxPoint x="306" y="870" as="sourcePoint" />
            <mxPoint x="306.04999999999995" y="915.5" as="targetPoint" />
          </mxGeometry>
        </mxCell>
        <mxCell id="5SNasLUA0fVGktQmLtoh-103" style="edgeStyle=orthogonalEdgeStyle;rounded=0;orthogonalLoop=1;jettySize=auto;html=1;entryX=0;entryY=0.5;entryDx=0;entryDy=0;strokeWidth=2;" parent="1" edge="1">
          <mxGeometry relative="1" as="geometry">
            <mxPoint x="233" y="851" as="sourcePoint" />
            <mxPoint x="288" y="851" as="targetPoint" />
          </mxGeometry>
        </mxCell>
        <mxCell id="5SNasLUA0fVGktQmLtoh-105" value="" style="endArrow=none;html=1;rounded=0;strokeWidth=2;endFill=0;" parent="1" edge="1">
          <mxGeometry width="50" height="50" relative="1" as="geometry">
            <mxPoint x="-50" y="890" as="sourcePoint" />
            <mxPoint x="300" y="660" as="targetPoint" />
            <Array as="points">
              <mxPoint x="40" y="890" />
              <mxPoint x="40" y="780" />
              <mxPoint x="40" y="660" />
            </Array>
          </mxGeometry>
        </mxCell>
        <mxCell id="5SNasLUA0fVGktQmLtoh-106" value="block cipher&lt;br style=&quot;font-size: 21px;&quot;&gt;encryption" style="rounded=0;whiteSpace=wrap;html=1;fontSize=21;strokeWidth=2;" parent="1" vertex="1">
          <mxGeometry x="584" y="710" width="190" height="70" as="geometry" />
        </mxCell>
        <mxCell id="5SNasLUA0fVGktQmLtoh-107" value="" style="shape=table;startSize=0;container=1;collapsible=0;childLayout=tableLayout;strokeWidth=2;" parent="1" vertex="1">
          <mxGeometry x="564" y="918" width="230" height="20" as="geometry" />
        </mxCell>
        <mxCell id="5SNasLUA0fVGktQmLtoh-108" value="" style="shape=tableRow;horizontal=0;startSize=0;swimlaneHead=0;swimlaneBody=0;strokeColor=inherit;top=0;left=0;bottom=0;right=0;collapsible=0;dropTarget=0;fillColor=none;points=[[0,0.5],[1,0.5]];portConstraint=eastwest;" parent="5SNasLUA0fVGktQmLtoh-107" vertex="1">
          <mxGeometry width="230" height="20" as="geometry" />
        </mxCell>
        <mxCell id="5SNasLUA0fVGktQmLtoh-109" value="" style="shape=partialRectangle;html=1;whiteSpace=wrap;connectable=0;strokeColor=inherit;overflow=hidden;fillColor=none;top=0;left=0;bottom=0;right=0;pointerEvents=1;" parent="5SNasLUA0fVGktQmLtoh-108" vertex="1">
          <mxGeometry width="23" height="20" as="geometry">
            <mxRectangle width="23" height="20" as="alternateBounds" />
          </mxGeometry>
        </mxCell>
        <mxCell id="5SNasLUA0fVGktQmLtoh-110" value="" style="shape=partialRectangle;html=1;whiteSpace=wrap;connectable=0;strokeColor=inherit;overflow=hidden;fillColor=none;top=0;left=0;bottom=0;right=0;pointerEvents=1;" parent="5SNasLUA0fVGktQmLtoh-108" vertex="1">
          <mxGeometry x="23" width="23" height="20" as="geometry">
            <mxRectangle width="23" height="20" as="alternateBounds" />
          </mxGeometry>
        </mxCell>
        <mxCell id="5SNasLUA0fVGktQmLtoh-111" value="" style="shape=partialRectangle;html=1;whiteSpace=wrap;connectable=0;strokeColor=inherit;overflow=hidden;fillColor=none;top=0;left=0;bottom=0;right=0;pointerEvents=1;" parent="5SNasLUA0fVGktQmLtoh-108" vertex="1">
          <mxGeometry x="46" width="23" height="20" as="geometry">
            <mxRectangle width="23" height="20" as="alternateBounds" />
          </mxGeometry>
        </mxCell>
        <mxCell id="5SNasLUA0fVGktQmLtoh-112" value="" style="shape=partialRectangle;html=1;whiteSpace=wrap;connectable=0;strokeColor=inherit;overflow=hidden;fillColor=none;top=0;left=0;bottom=0;right=0;pointerEvents=1;" parent="5SNasLUA0fVGktQmLtoh-108" vertex="1">
          <mxGeometry x="69" width="23" height="20" as="geometry">
            <mxRectangle width="23" height="20" as="alternateBounds" />
          </mxGeometry>
        </mxCell>
        <mxCell id="5SNasLUA0fVGktQmLtoh-113" value="" style="shape=partialRectangle;html=1;whiteSpace=wrap;connectable=0;strokeColor=inherit;overflow=hidden;fillColor=none;top=0;left=0;bottom=0;right=0;pointerEvents=1;" parent="5SNasLUA0fVGktQmLtoh-108" vertex="1">
          <mxGeometry x="92" width="23" height="20" as="geometry">
            <mxRectangle width="23" height="20" as="alternateBounds" />
          </mxGeometry>
        </mxCell>
        <mxCell id="5SNasLUA0fVGktQmLtoh-114" value="" style="shape=partialRectangle;html=1;whiteSpace=wrap;connectable=0;strokeColor=inherit;overflow=hidden;fillColor=none;top=0;left=0;bottom=0;right=0;pointerEvents=1;" parent="5SNasLUA0fVGktQmLtoh-108" vertex="1">
          <mxGeometry x="115" width="23" height="20" as="geometry">
            <mxRectangle width="23" height="20" as="alternateBounds" />
          </mxGeometry>
        </mxCell>
        <mxCell id="5SNasLUA0fVGktQmLtoh-115" value="" style="shape=partialRectangle;html=1;whiteSpace=wrap;connectable=0;strokeColor=inherit;overflow=hidden;fillColor=none;top=0;left=0;bottom=0;right=0;pointerEvents=1;" parent="5SNasLUA0fVGktQmLtoh-108" vertex="1">
          <mxGeometry x="138" width="23" height="20" as="geometry">
            <mxRectangle width="23" height="20" as="alternateBounds" />
          </mxGeometry>
        </mxCell>
        <mxCell id="5SNasLUA0fVGktQmLtoh-116" value="" style="shape=partialRectangle;html=1;whiteSpace=wrap;connectable=0;strokeColor=inherit;overflow=hidden;fillColor=none;top=0;left=0;bottom=0;right=0;pointerEvents=1;" parent="5SNasLUA0fVGktQmLtoh-108" vertex="1">
          <mxGeometry x="161" width="23" height="20" as="geometry">
            <mxRectangle width="23" height="20" as="alternateBounds" />
          </mxGeometry>
        </mxCell>
        <mxCell id="5SNasLUA0fVGktQmLtoh-117" value="" style="shape=partialRectangle;html=1;whiteSpace=wrap;connectable=0;strokeColor=inherit;overflow=hidden;fillColor=none;top=0;left=0;bottom=0;right=0;pointerEvents=1;" parent="5SNasLUA0fVGktQmLtoh-108" vertex="1">
          <mxGeometry x="184" width="23" height="20" as="geometry">
            <mxRectangle width="23" height="20" as="alternateBounds" />
          </mxGeometry>
        </mxCell>
        <mxCell id="5SNasLUA0fVGktQmLtoh-118" value="" style="shape=partialRectangle;html=1;whiteSpace=wrap;connectable=0;strokeColor=inherit;overflow=hidden;fillColor=none;top=0;left=0;bottom=0;right=0;pointerEvents=1;" parent="5SNasLUA0fVGktQmLtoh-108" vertex="1">
          <mxGeometry x="207" width="23" height="20" as="geometry">
            <mxRectangle width="23" height="20" as="alternateBounds" />
          </mxGeometry>
        </mxCell>
        <mxCell id="5SNasLUA0fVGktQmLtoh-119" value="" style="shape=table;startSize=0;container=1;collapsible=0;childLayout=tableLayout;strokeWidth=2;" parent="1" vertex="1">
          <mxGeometry x="435" y="868" width="230" height="20" as="geometry" />
        </mxCell>
        <mxCell id="5SNasLUA0fVGktQmLtoh-120" value="" style="shape=tableRow;horizontal=0;startSize=0;swimlaneHead=0;swimlaneBody=0;strokeColor=inherit;top=0;left=0;bottom=0;right=0;collapsible=0;dropTarget=0;fillColor=none;points=[[0,0.5],[1,0.5]];portConstraint=eastwest;" parent="5SNasLUA0fVGktQmLtoh-119" vertex="1">
          <mxGeometry width="230" height="20" as="geometry" />
        </mxCell>
        <mxCell id="5SNasLUA0fVGktQmLtoh-121" value="" style="shape=partialRectangle;html=1;whiteSpace=wrap;connectable=0;strokeColor=inherit;overflow=hidden;fillColor=none;top=0;left=0;bottom=0;right=0;pointerEvents=1;" parent="5SNasLUA0fVGktQmLtoh-120" vertex="1">
          <mxGeometry width="23" height="20" as="geometry">
            <mxRectangle width="23" height="20" as="alternateBounds" />
          </mxGeometry>
        </mxCell>
        <mxCell id="5SNasLUA0fVGktQmLtoh-122" value="" style="shape=partialRectangle;html=1;whiteSpace=wrap;connectable=0;strokeColor=inherit;overflow=hidden;fillColor=none;top=0;left=0;bottom=0;right=0;pointerEvents=1;" parent="5SNasLUA0fVGktQmLtoh-120" vertex="1">
          <mxGeometry x="23" width="23" height="20" as="geometry">
            <mxRectangle width="23" height="20" as="alternateBounds" />
          </mxGeometry>
        </mxCell>
        <mxCell id="5SNasLUA0fVGktQmLtoh-123" value="" style="shape=partialRectangle;html=1;whiteSpace=wrap;connectable=0;strokeColor=inherit;overflow=hidden;fillColor=none;top=0;left=0;bottom=0;right=0;pointerEvents=1;" parent="5SNasLUA0fVGktQmLtoh-120" vertex="1">
          <mxGeometry x="46" width="23" height="20" as="geometry">
            <mxRectangle width="23" height="20" as="alternateBounds" />
          </mxGeometry>
        </mxCell>
        <mxCell id="5SNasLUA0fVGktQmLtoh-124" value="" style="shape=partialRectangle;html=1;whiteSpace=wrap;connectable=0;strokeColor=inherit;overflow=hidden;fillColor=none;top=0;left=0;bottom=0;right=0;pointerEvents=1;" parent="5SNasLUA0fVGktQmLtoh-120" vertex="1">
          <mxGeometry x="69" width="23" height="20" as="geometry">
            <mxRectangle width="23" height="20" as="alternateBounds" />
          </mxGeometry>
        </mxCell>
        <mxCell id="5SNasLUA0fVGktQmLtoh-125" value="" style="shape=partialRectangle;html=1;whiteSpace=wrap;connectable=0;strokeColor=inherit;overflow=hidden;fillColor=none;top=0;left=0;bottom=0;right=0;pointerEvents=1;" parent="5SNasLUA0fVGktQmLtoh-120" vertex="1">
          <mxGeometry x="92" width="26" height="20" as="geometry">
            <mxRectangle width="26" height="20" as="alternateBounds" />
          </mxGeometry>
        </mxCell>
        <mxCell id="5SNasLUA0fVGktQmLtoh-126" value="" style="shape=partialRectangle;html=1;whiteSpace=wrap;connectable=0;strokeColor=inherit;overflow=hidden;fillColor=none;top=0;left=0;bottom=0;right=0;pointerEvents=1;" parent="5SNasLUA0fVGktQmLtoh-120" vertex="1">
          <mxGeometry x="118" width="20" height="20" as="geometry">
            <mxRectangle width="20" height="20" as="alternateBounds" />
          </mxGeometry>
        </mxCell>
        <mxCell id="5SNasLUA0fVGktQmLtoh-127" value="" style="shape=partialRectangle;html=1;whiteSpace=wrap;connectable=0;strokeColor=inherit;overflow=hidden;fillColor=none;top=0;left=0;bottom=0;right=0;pointerEvents=1;" parent="5SNasLUA0fVGktQmLtoh-120" vertex="1">
          <mxGeometry x="138" width="23" height="20" as="geometry">
            <mxRectangle width="23" height="20" as="alternateBounds" />
          </mxGeometry>
        </mxCell>
        <mxCell id="5SNasLUA0fVGktQmLtoh-128" value="" style="shape=partialRectangle;html=1;whiteSpace=wrap;connectable=0;strokeColor=inherit;overflow=hidden;fillColor=none;top=0;left=0;bottom=0;right=0;pointerEvents=1;" parent="5SNasLUA0fVGktQmLtoh-120" vertex="1">
          <mxGeometry x="161" width="23" height="20" as="geometry">
            <mxRectangle width="23" height="20" as="alternateBounds" />
          </mxGeometry>
        </mxCell>
        <mxCell id="5SNasLUA0fVGktQmLtoh-129" value="" style="shape=partialRectangle;html=1;whiteSpace=wrap;connectable=0;strokeColor=inherit;overflow=hidden;fillColor=none;top=0;left=0;bottom=0;right=0;pointerEvents=1;" parent="5SNasLUA0fVGktQmLtoh-120" vertex="1">
          <mxGeometry x="184" width="23" height="20" as="geometry">
            <mxRectangle width="23" height="20" as="alternateBounds" />
          </mxGeometry>
        </mxCell>
        <mxCell id="5SNasLUA0fVGktQmLtoh-130" value="" style="shape=partialRectangle;html=1;whiteSpace=wrap;connectable=0;strokeColor=inherit;overflow=hidden;fillColor=none;top=0;left=0;bottom=0;right=0;pointerEvents=1;" parent="5SNasLUA0fVGktQmLtoh-120" vertex="1">
          <mxGeometry x="207" width="23" height="20" as="geometry">
            <mxRectangle width="23" height="20" as="alternateBounds" />
          </mxGeometry>
        </mxCell>
        <mxCell id="5SNasLUA0fVGktQmLtoh-131" value="&lt;font style=&quot;font-size: 21px;&quot;&gt;Ciphertext&lt;/font&gt;" style="text;html=1;align=center;verticalAlign=middle;resizable=0;points=[];autosize=1;strokeColor=none;fillColor=none;" parent="1" vertex="1">
          <mxGeometry x="608" y="932" width="120" height="40" as="geometry" />
        </mxCell>
        <mxCell id="5SNasLUA0fVGktQmLtoh-132" value="&lt;font style=&quot;font-size: 21px;&quot;&gt;Plaintext&lt;/font&gt;" style="text;html=1;align=center;verticalAlign=middle;resizable=0;points=[];autosize=1;strokeColor=none;fillColor=none;" parent="1" vertex="1">
          <mxGeometry x="500" y="828" width="100" height="40" as="geometry" />
        </mxCell>
        <mxCell id="5SNasLUA0fVGktQmLtoh-133" style="edgeStyle=orthogonalEdgeStyle;rounded=0;orthogonalLoop=1;jettySize=auto;html=1;entryX=0;entryY=0.5;entryDx=0;entryDy=0;strokeWidth=2;" parent="1" edge="1">
          <mxGeometry relative="1" as="geometry">
            <mxPoint x="524" y="745" as="sourcePoint" />
            <mxPoint x="579" y="745" as="targetPoint" />
          </mxGeometry>
        </mxCell>
        <mxCell id="5SNasLUA0fVGktQmLtoh-134" value="&lt;font style=&quot;font-size: 21px;&quot;&gt;Key&lt;/font&gt;" style="text;html=1;align=center;verticalAlign=middle;resizable=0;points=[];autosize=1;strokeColor=none;fillColor=none;" parent="1" vertex="1">
          <mxGeometry x="469" y="725" width="60" height="40" as="geometry" />
        </mxCell>
        <mxCell id="5SNasLUA0fVGktQmLtoh-135" style="edgeStyle=orthogonalEdgeStyle;rounded=0;orthogonalLoop=1;jettySize=auto;html=1;strokeWidth=2;" parent="1" edge="1">
          <mxGeometry relative="1" as="geometry">
            <mxPoint x="530" y="660" as="sourcePoint" />
            <mxPoint x="678" y="698" as="targetPoint" />
            <Array as="points">
              <mxPoint x="678" y="658" />
              <mxPoint x="678" y="698" />
            </Array>
          </mxGeometry>
        </mxCell>
        <mxCell id="5SNasLUA0fVGktQmLtoh-136" style="edgeStyle=orthogonalEdgeStyle;rounded=0;orthogonalLoop=1;jettySize=auto;html=1;entryX=0.535;entryY=0.025;entryDx=0;entryDy=0;entryPerimeter=0;strokeWidth=2;" parent="1" edge="1">
          <mxGeometry relative="1" as="geometry">
            <mxPoint x="680" y="791" as="sourcePoint" />
            <mxPoint x="680.05" y="836.5" as="targetPoint" />
          </mxGeometry>
        </mxCell>
        <mxCell id="5SNasLUA0fVGktQmLtoh-137" value="" style="shape=image;verticalLabelPosition=bottom;labelBackgroundColor=default;verticalAlign=top;aspect=fixed;imageAspect=0;image=https://images.freeimages.com/vhq/images/previews/20d/logic-xor-symbol-clip-art-76039.jpg;" parent="1" vertex="1">
          <mxGeometry x="665" y="838" width="30" height="30" as="geometry" />
        </mxCell>
        <mxCell id="5SNasLUA0fVGktQmLtoh-138" style="edgeStyle=orthogonalEdgeStyle;rounded=0;orthogonalLoop=1;jettySize=auto;html=1;entryX=0.535;entryY=0.025;entryDx=0;entryDy=0;entryPerimeter=0;strokeWidth=2;" parent="1" edge="1">
          <mxGeometry relative="1" as="geometry">
            <mxPoint x="680" y="870" as="sourcePoint" />
            <mxPoint x="680.05" y="915.5" as="targetPoint" />
          </mxGeometry>
        </mxCell>
        <mxCell id="5SNasLUA0fVGktQmLtoh-139" style="edgeStyle=orthogonalEdgeStyle;rounded=0;orthogonalLoop=1;jettySize=auto;html=1;entryX=0;entryY=0.5;entryDx=0;entryDy=0;strokeWidth=2;" parent="1" edge="1">
          <mxGeometry relative="1" as="geometry">
            <mxPoint x="607" y="851" as="sourcePoint" />
            <mxPoint x="662" y="851" as="targetPoint" />
          </mxGeometry>
        </mxCell>
        <mxCell id="5SNasLUA0fVGktQmLtoh-140" value="" style="endArrow=none;html=1;rounded=0;strokeWidth=2;endFill=0;" parent="1" edge="1">
          <mxGeometry width="50" height="50" relative="1" as="geometry">
            <mxPoint x="322" y="888" as="sourcePoint" />
            <mxPoint x="430" y="658" as="targetPoint" />
            <Array as="points">
              <mxPoint x="412" y="888" />
              <mxPoint x="412" y="778" />
              <mxPoint x="412" y="658" />
            </Array>
          </mxGeometry>
        </mxCell>
        <mxCell id="5SNasLUA0fVGktQmLtoh-141" value="&lt;font style=&quot;font-size: 24px;&quot;&gt;... ...&lt;/font&gt;" style="text;html=1;align=center;verticalAlign=middle;resizable=0;points=[];autosize=1;strokeColor=none;fillColor=none;strokeWidth=4;fontSize=24;fontStyle=1" parent="1" vertex="1">
          <mxGeometry x="445" y="633" width="70" height="40" as="geometry" />
        </mxCell>
        <mxCell id="dJ_z5oDo-pDch933jmG_-1" style="edgeStyle=orthogonalEdgeStyle;rounded=0;orthogonalLoop=1;jettySize=auto;html=1;entryX=0.535;entryY=0.025;entryDx=0;entryDy=0;entryPerimeter=0;strokeWidth=2;" edge="1" parent="1">
          <mxGeometry relative="1" as="geometry">
            <mxPoint x="-57" y="1208" as="sourcePoint" />
            <mxPoint x="-56.950000000000045" y="1253.5" as="targetPoint" />
          </mxGeometry>
        </mxCell>
        <mxCell id="dJ_z5oDo-pDch933jmG_-2" value="block cipher&lt;br style=&quot;font-size: 21px;&quot;&gt;encryption" style="rounded=0;whiteSpace=wrap;html=1;fontSize=21;strokeWidth=2;" vertex="1" parent="1">
          <mxGeometry x="-137" y="1331" width="165" height="70" as="geometry" />
        </mxCell>
        <mxCell id="dJ_z5oDo-pDch933jmG_-3" value="" style="shape=table;startSize=0;container=1;collapsible=0;childLayout=tableLayout;strokeWidth=2;" vertex="1" parent="1">
          <mxGeometry x="-173" y="1450" width="230" height="20" as="geometry" />
        </mxCell>
        <mxCell id="dJ_z5oDo-pDch933jmG_-4" value="" style="shape=tableRow;horizontal=0;startSize=0;swimlaneHead=0;swimlaneBody=0;strokeColor=inherit;top=0;left=0;bottom=0;right=0;collapsible=0;dropTarget=0;fillColor=none;points=[[0,0.5],[1,0.5]];portConstraint=eastwest;" vertex="1" parent="dJ_z5oDo-pDch933jmG_-3">
          <mxGeometry width="230" height="20" as="geometry" />
        </mxCell>
        <mxCell id="dJ_z5oDo-pDch933jmG_-5" value="" style="shape=partialRectangle;html=1;whiteSpace=wrap;connectable=0;strokeColor=inherit;overflow=hidden;fillColor=none;top=0;left=0;bottom=0;right=0;pointerEvents=1;" vertex="1" parent="dJ_z5oDo-pDch933jmG_-4">
          <mxGeometry width="23" height="20" as="geometry">
            <mxRectangle width="23" height="20" as="alternateBounds" />
          </mxGeometry>
        </mxCell>
        <mxCell id="dJ_z5oDo-pDch933jmG_-6" value="" style="shape=partialRectangle;html=1;whiteSpace=wrap;connectable=0;strokeColor=inherit;overflow=hidden;fillColor=none;top=0;left=0;bottom=0;right=0;pointerEvents=1;" vertex="1" parent="dJ_z5oDo-pDch933jmG_-4">
          <mxGeometry x="23" width="23" height="20" as="geometry">
            <mxRectangle width="23" height="20" as="alternateBounds" />
          </mxGeometry>
        </mxCell>
        <mxCell id="dJ_z5oDo-pDch933jmG_-7" value="" style="shape=partialRectangle;html=1;whiteSpace=wrap;connectable=0;strokeColor=inherit;overflow=hidden;fillColor=none;top=0;left=0;bottom=0;right=0;pointerEvents=1;" vertex="1" parent="dJ_z5oDo-pDch933jmG_-4">
          <mxGeometry x="46" width="23" height="20" as="geometry">
            <mxRectangle width="23" height="20" as="alternateBounds" />
          </mxGeometry>
        </mxCell>
        <mxCell id="dJ_z5oDo-pDch933jmG_-8" value="" style="shape=partialRectangle;html=1;whiteSpace=wrap;connectable=0;strokeColor=inherit;overflow=hidden;fillColor=none;top=0;left=0;bottom=0;right=0;pointerEvents=1;" vertex="1" parent="dJ_z5oDo-pDch933jmG_-4">
          <mxGeometry x="69" width="23" height="20" as="geometry">
            <mxRectangle width="23" height="20" as="alternateBounds" />
          </mxGeometry>
        </mxCell>
        <mxCell id="dJ_z5oDo-pDch933jmG_-9" value="" style="shape=partialRectangle;html=1;whiteSpace=wrap;connectable=0;strokeColor=inherit;overflow=hidden;fillColor=none;top=0;left=0;bottom=0;right=0;pointerEvents=1;" vertex="1" parent="dJ_z5oDo-pDch933jmG_-4">
          <mxGeometry x="92" width="23" height="20" as="geometry">
            <mxRectangle width="23" height="20" as="alternateBounds" />
          </mxGeometry>
        </mxCell>
        <mxCell id="dJ_z5oDo-pDch933jmG_-10" value="" style="shape=partialRectangle;html=1;whiteSpace=wrap;connectable=0;strokeColor=inherit;overflow=hidden;fillColor=none;top=0;left=0;bottom=0;right=0;pointerEvents=1;" vertex="1" parent="dJ_z5oDo-pDch933jmG_-4">
          <mxGeometry x="115" width="23" height="20" as="geometry">
            <mxRectangle width="23" height="20" as="alternateBounds" />
          </mxGeometry>
        </mxCell>
        <mxCell id="dJ_z5oDo-pDch933jmG_-11" value="" style="shape=partialRectangle;html=1;whiteSpace=wrap;connectable=0;strokeColor=inherit;overflow=hidden;fillColor=none;top=0;left=0;bottom=0;right=0;pointerEvents=1;" vertex="1" parent="dJ_z5oDo-pDch933jmG_-4">
          <mxGeometry x="138" width="23" height="20" as="geometry">
            <mxRectangle width="23" height="20" as="alternateBounds" />
          </mxGeometry>
        </mxCell>
        <mxCell id="dJ_z5oDo-pDch933jmG_-12" value="" style="shape=partialRectangle;html=1;whiteSpace=wrap;connectable=0;strokeColor=inherit;overflow=hidden;fillColor=none;top=0;left=0;bottom=0;right=0;pointerEvents=1;" vertex="1" parent="dJ_z5oDo-pDch933jmG_-4">
          <mxGeometry x="161" width="26" height="20" as="geometry">
            <mxRectangle width="26" height="20" as="alternateBounds" />
          </mxGeometry>
        </mxCell>
        <mxCell id="dJ_z5oDo-pDch933jmG_-13" value="" style="shape=partialRectangle;html=1;whiteSpace=wrap;connectable=0;strokeColor=inherit;overflow=hidden;fillColor=none;top=0;left=0;bottom=0;right=0;pointerEvents=1;" vertex="1" parent="dJ_z5oDo-pDch933jmG_-4">
          <mxGeometry x="187" width="20" height="20" as="geometry">
            <mxRectangle width="20" height="20" as="alternateBounds" />
          </mxGeometry>
        </mxCell>
        <mxCell id="dJ_z5oDo-pDch933jmG_-14" value="" style="shape=partialRectangle;html=1;whiteSpace=wrap;connectable=0;strokeColor=inherit;overflow=hidden;fillColor=none;top=0;left=0;bottom=0;right=0;pointerEvents=1;" vertex="1" parent="dJ_z5oDo-pDch933jmG_-4">
          <mxGeometry x="207" width="23" height="20" as="geometry">
            <mxRectangle width="23" height="20" as="alternateBounds" />
          </mxGeometry>
        </mxCell>
        <mxCell id="dJ_z5oDo-pDch933jmG_-15" value="" style="shape=table;startSize=0;container=1;collapsible=0;childLayout=tableLayout;strokeWidth=2;" vertex="1" parent="1">
          <mxGeometry x="-177" y="1187" width="230" height="20" as="geometry" />
        </mxCell>
        <mxCell id="dJ_z5oDo-pDch933jmG_-16" value="" style="shape=tableRow;horizontal=0;startSize=0;swimlaneHead=0;swimlaneBody=0;strokeColor=inherit;top=0;left=0;bottom=0;right=0;collapsible=0;dropTarget=0;fillColor=none;points=[[0,0.5],[1,0.5]];portConstraint=eastwest;" vertex="1" parent="dJ_z5oDo-pDch933jmG_-15">
          <mxGeometry width="230" height="20" as="geometry" />
        </mxCell>
        <mxCell id="dJ_z5oDo-pDch933jmG_-17" value="" style="shape=partialRectangle;html=1;whiteSpace=wrap;connectable=0;strokeColor=inherit;overflow=hidden;fillColor=none;top=0;left=0;bottom=0;right=0;pointerEvents=1;" vertex="1" parent="dJ_z5oDo-pDch933jmG_-16">
          <mxGeometry width="23" height="20" as="geometry">
            <mxRectangle width="23" height="20" as="alternateBounds" />
          </mxGeometry>
        </mxCell>
        <mxCell id="dJ_z5oDo-pDch933jmG_-18" value="" style="shape=partialRectangle;html=1;whiteSpace=wrap;connectable=0;strokeColor=inherit;overflow=hidden;fillColor=none;top=0;left=0;bottom=0;right=0;pointerEvents=1;" vertex="1" parent="dJ_z5oDo-pDch933jmG_-16">
          <mxGeometry x="23" width="23" height="20" as="geometry">
            <mxRectangle width="23" height="20" as="alternateBounds" />
          </mxGeometry>
        </mxCell>
        <mxCell id="dJ_z5oDo-pDch933jmG_-19" value="" style="shape=partialRectangle;html=1;whiteSpace=wrap;connectable=0;strokeColor=inherit;overflow=hidden;fillColor=none;top=0;left=0;bottom=0;right=0;pointerEvents=1;" vertex="1" parent="dJ_z5oDo-pDch933jmG_-16">
          <mxGeometry x="46" width="23" height="20" as="geometry">
            <mxRectangle width="23" height="20" as="alternateBounds" />
          </mxGeometry>
        </mxCell>
        <mxCell id="dJ_z5oDo-pDch933jmG_-20" value="" style="shape=partialRectangle;html=1;whiteSpace=wrap;connectable=0;strokeColor=inherit;overflow=hidden;fillColor=none;top=0;left=0;bottom=0;right=0;pointerEvents=1;" vertex="1" parent="dJ_z5oDo-pDch933jmG_-16">
          <mxGeometry x="69" width="26" height="20" as="geometry">
            <mxRectangle width="26" height="20" as="alternateBounds" />
          </mxGeometry>
        </mxCell>
        <mxCell id="dJ_z5oDo-pDch933jmG_-21" value="" style="shape=partialRectangle;html=1;whiteSpace=wrap;connectable=0;strokeColor=inherit;overflow=hidden;fillColor=none;top=0;left=0;bottom=0;right=0;pointerEvents=1;" vertex="1" parent="dJ_z5oDo-pDch933jmG_-16">
          <mxGeometry x="95" width="20" height="20" as="geometry">
            <mxRectangle width="20" height="20" as="alternateBounds" />
          </mxGeometry>
        </mxCell>
        <mxCell id="dJ_z5oDo-pDch933jmG_-22" value="" style="shape=partialRectangle;html=1;whiteSpace=wrap;connectable=0;strokeColor=inherit;overflow=hidden;fillColor=none;top=0;left=0;bottom=0;right=0;pointerEvents=1;" vertex="1" parent="dJ_z5oDo-pDch933jmG_-16">
          <mxGeometry x="115" width="23" height="20" as="geometry">
            <mxRectangle width="23" height="20" as="alternateBounds" />
          </mxGeometry>
        </mxCell>
        <mxCell id="dJ_z5oDo-pDch933jmG_-23" value="" style="shape=partialRectangle;html=1;whiteSpace=wrap;connectable=0;strokeColor=inherit;overflow=hidden;fillColor=none;top=0;left=0;bottom=0;right=0;pointerEvents=1;" vertex="1" parent="dJ_z5oDo-pDch933jmG_-16">
          <mxGeometry x="138" width="23" height="20" as="geometry">
            <mxRectangle width="23" height="20" as="alternateBounds" />
          </mxGeometry>
        </mxCell>
        <mxCell id="dJ_z5oDo-pDch933jmG_-24" value="" style="shape=partialRectangle;html=1;whiteSpace=wrap;connectable=0;strokeColor=inherit;overflow=hidden;fillColor=none;top=0;left=0;bottom=0;right=0;pointerEvents=1;" vertex="1" parent="dJ_z5oDo-pDch933jmG_-16">
          <mxGeometry x="161" width="23" height="20" as="geometry">
            <mxRectangle width="23" height="20" as="alternateBounds" />
          </mxGeometry>
        </mxCell>
        <mxCell id="dJ_z5oDo-pDch933jmG_-25" value="" style="shape=partialRectangle;html=1;whiteSpace=wrap;connectable=0;strokeColor=inherit;overflow=hidden;fillColor=none;top=0;left=0;bottom=0;right=0;pointerEvents=1;" vertex="1" parent="dJ_z5oDo-pDch933jmG_-16">
          <mxGeometry x="184" width="23" height="20" as="geometry">
            <mxRectangle width="23" height="20" as="alternateBounds" />
          </mxGeometry>
        </mxCell>
        <mxCell id="dJ_z5oDo-pDch933jmG_-26" value="" style="shape=partialRectangle;html=1;whiteSpace=wrap;connectable=0;strokeColor=inherit;overflow=hidden;fillColor=none;top=0;left=0;bottom=0;right=0;pointerEvents=1;" vertex="1" parent="dJ_z5oDo-pDch933jmG_-16">
          <mxGeometry x="207" width="23" height="20" as="geometry">
            <mxRectangle width="23" height="20" as="alternateBounds" />
          </mxGeometry>
        </mxCell>
        <mxCell id="dJ_z5oDo-pDch933jmG_-27" value="&lt;font style=&quot;font-size: 21px;&quot;&gt;Ciphertext&lt;/font&gt;" style="text;html=1;align=center;verticalAlign=middle;resizable=0;points=[];autosize=1;strokeColor=none;fillColor=none;" vertex="1" parent="1">
          <mxGeometry x="-118" y="1465" width="120" height="40" as="geometry" />
        </mxCell>
        <mxCell id="dJ_z5oDo-pDch933jmG_-28" value="&lt;font style=&quot;font-size: 21px;&quot;&gt;Plaintext&lt;/font&gt;" style="text;html=1;align=center;verticalAlign=middle;resizable=0;points=[];autosize=1;strokeColor=none;fillColor=none;" vertex="1" parent="1">
          <mxGeometry x="-99" y="1150" width="100" height="40" as="geometry" />
        </mxCell>
        <mxCell id="dJ_z5oDo-pDch933jmG_-29" style="edgeStyle=orthogonalEdgeStyle;rounded=0;orthogonalLoop=1;jettySize=auto;html=1;entryX=0;entryY=0.5;entryDx=0;entryDy=0;strokeWidth=2;" edge="1" parent="1">
          <mxGeometry relative="1" as="geometry">
            <mxPoint x="-194" y="1366" as="sourcePoint" />
            <mxPoint x="-139" y="1366" as="targetPoint" />
          </mxGeometry>
        </mxCell>
        <mxCell id="dJ_z5oDo-pDch933jmG_-30" value="&lt;font style=&quot;font-size: 21px;&quot;&gt;Key&lt;/font&gt;" style="text;html=1;align=center;verticalAlign=middle;resizable=0;points=[];autosize=1;strokeColor=none;fillColor=none;" vertex="1" parent="1">
          <mxGeometry x="-249" y="1346" width="60" height="40" as="geometry" />
        </mxCell>
        <mxCell id="dJ_z5oDo-pDch933jmG_-32" style="edgeStyle=orthogonalEdgeStyle;rounded=0;orthogonalLoop=1;jettySize=auto;html=1;strokeWidth=2;" edge="1" parent="1">
          <mxGeometry relative="1" as="geometry">
            <mxPoint x="-57" y="1285" as="sourcePoint" />
            <mxPoint x="-57" y="1325" as="targetPoint" />
          </mxGeometry>
        </mxCell>
        <mxCell id="dJ_z5oDo-pDch933jmG_-33" value="" style="shape=table;startSize=0;container=1;collapsible=0;childLayout=tableLayout;strokeWidth=2;" vertex="1" parent="1">
          <mxGeometry x="-367" y="1260" width="230" height="20" as="geometry" />
        </mxCell>
        <mxCell id="dJ_z5oDo-pDch933jmG_-34" value="" style="shape=tableRow;horizontal=0;startSize=0;swimlaneHead=0;swimlaneBody=0;strokeColor=inherit;top=0;left=0;bottom=0;right=0;collapsible=0;dropTarget=0;fillColor=none;points=[[0,0.5],[1,0.5]];portConstraint=eastwest;" vertex="1" parent="dJ_z5oDo-pDch933jmG_-33">
          <mxGeometry width="230" height="20" as="geometry" />
        </mxCell>
        <mxCell id="dJ_z5oDo-pDch933jmG_-35" value="" style="shape=partialRectangle;html=1;whiteSpace=wrap;connectable=0;strokeColor=inherit;overflow=hidden;fillColor=none;top=0;left=0;bottom=0;right=0;pointerEvents=1;" vertex="1" parent="dJ_z5oDo-pDch933jmG_-34">
          <mxGeometry width="23" height="20" as="geometry">
            <mxRectangle width="23" height="20" as="alternateBounds" />
          </mxGeometry>
        </mxCell>
        <mxCell id="dJ_z5oDo-pDch933jmG_-36" value="" style="shape=partialRectangle;html=1;whiteSpace=wrap;connectable=0;strokeColor=inherit;overflow=hidden;fillColor=none;top=0;left=0;bottom=0;right=0;pointerEvents=1;" vertex="1" parent="dJ_z5oDo-pDch933jmG_-34">
          <mxGeometry x="23" width="23" height="20" as="geometry">
            <mxRectangle width="23" height="20" as="alternateBounds" />
          </mxGeometry>
        </mxCell>
        <mxCell id="dJ_z5oDo-pDch933jmG_-37" value="" style="shape=partialRectangle;html=1;whiteSpace=wrap;connectable=0;strokeColor=inherit;overflow=hidden;fillColor=none;top=0;left=0;bottom=0;right=0;pointerEvents=1;" vertex="1" parent="dJ_z5oDo-pDch933jmG_-34">
          <mxGeometry x="46" width="23" height="20" as="geometry">
            <mxRectangle width="23" height="20" as="alternateBounds" />
          </mxGeometry>
        </mxCell>
        <mxCell id="dJ_z5oDo-pDch933jmG_-38" value="" style="shape=partialRectangle;html=1;whiteSpace=wrap;connectable=0;strokeColor=inherit;overflow=hidden;fillColor=none;top=0;left=0;bottom=0;right=0;pointerEvents=1;" vertex="1" parent="dJ_z5oDo-pDch933jmG_-34">
          <mxGeometry x="69" width="23" height="20" as="geometry">
            <mxRectangle width="23" height="20" as="alternateBounds" />
          </mxGeometry>
        </mxCell>
        <mxCell id="dJ_z5oDo-pDch933jmG_-39" value="" style="shape=partialRectangle;html=1;whiteSpace=wrap;connectable=0;strokeColor=inherit;overflow=hidden;fillColor=none;top=0;left=0;bottom=0;right=0;pointerEvents=1;" vertex="1" parent="dJ_z5oDo-pDch933jmG_-34">
          <mxGeometry x="92" width="23" height="20" as="geometry">
            <mxRectangle width="23" height="20" as="alternateBounds" />
          </mxGeometry>
        </mxCell>
        <mxCell id="dJ_z5oDo-pDch933jmG_-40" value="" style="shape=partialRectangle;html=1;whiteSpace=wrap;connectable=0;strokeColor=inherit;overflow=hidden;fillColor=none;top=0;left=0;bottom=0;right=0;pointerEvents=1;" vertex="1" parent="dJ_z5oDo-pDch933jmG_-34">
          <mxGeometry x="115" width="23" height="20" as="geometry">
            <mxRectangle width="23" height="20" as="alternateBounds" />
          </mxGeometry>
        </mxCell>
        <mxCell id="dJ_z5oDo-pDch933jmG_-41" value="" style="shape=partialRectangle;html=1;whiteSpace=wrap;connectable=0;strokeColor=inherit;overflow=hidden;fillColor=none;top=0;left=0;bottom=0;right=0;pointerEvents=1;" vertex="1" parent="dJ_z5oDo-pDch933jmG_-34">
          <mxGeometry x="138" width="23" height="20" as="geometry">
            <mxRectangle width="23" height="20" as="alternateBounds" />
          </mxGeometry>
        </mxCell>
        <mxCell id="dJ_z5oDo-pDch933jmG_-42" value="" style="shape=partialRectangle;html=1;whiteSpace=wrap;connectable=0;strokeColor=inherit;overflow=hidden;fillColor=none;top=0;left=0;bottom=0;right=0;pointerEvents=1;" vertex="1" parent="dJ_z5oDo-pDch933jmG_-34">
          <mxGeometry x="161" width="23" height="20" as="geometry">
            <mxRectangle width="23" height="20" as="alternateBounds" />
          </mxGeometry>
        </mxCell>
        <mxCell id="dJ_z5oDo-pDch933jmG_-43" value="" style="shape=partialRectangle;html=1;whiteSpace=wrap;connectable=0;strokeColor=inherit;overflow=hidden;fillColor=none;top=0;left=0;bottom=0;right=0;pointerEvents=1;" vertex="1" parent="dJ_z5oDo-pDch933jmG_-34">
          <mxGeometry x="184" width="23" height="20" as="geometry">
            <mxRectangle width="23" height="20" as="alternateBounds" />
          </mxGeometry>
        </mxCell>
        <mxCell id="dJ_z5oDo-pDch933jmG_-44" value="" style="shape=partialRectangle;html=1;whiteSpace=wrap;connectable=0;strokeColor=inherit;overflow=hidden;fillColor=none;top=0;left=0;bottom=0;right=0;pointerEvents=1;" vertex="1" parent="dJ_z5oDo-pDch933jmG_-34">
          <mxGeometry x="207" width="23" height="20" as="geometry">
            <mxRectangle width="23" height="20" as="alternateBounds" />
          </mxGeometry>
        </mxCell>
        <mxCell id="dJ_z5oDo-pDch933jmG_-45" value="&lt;font style=&quot;font-size: 21px;&quot;&gt;Initialization Vector (IV)&lt;/font&gt;" style="text;html=1;align=center;verticalAlign=middle;resizable=0;points=[];autosize=1;strokeColor=none;fillColor=none;" vertex="1" parent="1">
          <mxGeometry x="-377" y="1220" width="240" height="40" as="geometry" />
        </mxCell>
        <mxCell id="dJ_z5oDo-pDch933jmG_-46" value="" style="shape=image;verticalLabelPosition=bottom;labelBackgroundColor=default;verticalAlign=top;aspect=fixed;imageAspect=0;image=https://images.freeimages.com/vhq/images/previews/20d/logic-xor-symbol-clip-art-76039.jpg;" vertex="1" parent="1">
          <mxGeometry x="-72" y="1255" width="30" height="30" as="geometry" />
        </mxCell>
        <mxCell id="dJ_z5oDo-pDch933jmG_-49" style="edgeStyle=orthogonalEdgeStyle;rounded=0;orthogonalLoop=1;jettySize=auto;html=1;entryX=0.535;entryY=0.025;entryDx=0;entryDy=0;entryPerimeter=0;strokeWidth=2;" edge="1" parent="1">
          <mxGeometry relative="1" as="geometry">
            <mxPoint x="-57" y="1403" as="sourcePoint" />
            <mxPoint x="-56.950000000000045" y="1448.5" as="targetPoint" />
          </mxGeometry>
        </mxCell>
        <mxCell id="dJ_z5oDo-pDch933jmG_-50" style="edgeStyle=orthogonalEdgeStyle;rounded=0;orthogonalLoop=1;jettySize=auto;html=1;entryX=0;entryY=0.5;entryDx=0;entryDy=0;strokeWidth=2;" edge="1" parent="1">
          <mxGeometry relative="1" as="geometry">
            <mxPoint x="-129" y="1269" as="sourcePoint" />
            <mxPoint x="-74" y="1269" as="targetPoint" />
          </mxGeometry>
        </mxCell>
        <mxCell id="dJ_z5oDo-pDch933jmG_-157" style="edgeStyle=orthogonalEdgeStyle;rounded=0;orthogonalLoop=1;jettySize=auto;html=1;entryX=0.535;entryY=0.025;entryDx=0;entryDy=0;entryPerimeter=0;strokeWidth=2;" edge="1" parent="1">
          <mxGeometry relative="1" as="geometry">
            <mxPoint x="334" y="1208" as="sourcePoint" />
            <mxPoint x="334.04999999999995" y="1253.5" as="targetPoint" />
          </mxGeometry>
        </mxCell>
        <mxCell id="dJ_z5oDo-pDch933jmG_-158" value="block cipher&lt;br style=&quot;font-size: 21px;&quot;&gt;encryption" style="rounded=0;whiteSpace=wrap;html=1;fontSize=21;strokeWidth=2;" vertex="1" parent="1">
          <mxGeometry x="254" y="1331" width="165" height="70" as="geometry" />
        </mxCell>
        <mxCell id="dJ_z5oDo-pDch933jmG_-159" value="" style="shape=table;startSize=0;container=1;collapsible=0;childLayout=tableLayout;strokeWidth=2;" vertex="1" parent="1">
          <mxGeometry x="218" y="1451" width="230" height="20" as="geometry" />
        </mxCell>
        <mxCell id="dJ_z5oDo-pDch933jmG_-160" value="" style="shape=tableRow;horizontal=0;startSize=0;swimlaneHead=0;swimlaneBody=0;strokeColor=inherit;top=0;left=0;bottom=0;right=0;collapsible=0;dropTarget=0;fillColor=none;points=[[0,0.5],[1,0.5]];portConstraint=eastwest;" vertex="1" parent="dJ_z5oDo-pDch933jmG_-159">
          <mxGeometry width="230" height="20" as="geometry" />
        </mxCell>
        <mxCell id="dJ_z5oDo-pDch933jmG_-161" value="" style="shape=partialRectangle;html=1;whiteSpace=wrap;connectable=0;strokeColor=inherit;overflow=hidden;fillColor=none;top=0;left=0;bottom=0;right=0;pointerEvents=1;" vertex="1" parent="dJ_z5oDo-pDch933jmG_-160">
          <mxGeometry width="23" height="20" as="geometry">
            <mxRectangle width="23" height="20" as="alternateBounds" />
          </mxGeometry>
        </mxCell>
        <mxCell id="dJ_z5oDo-pDch933jmG_-162" value="" style="shape=partialRectangle;html=1;whiteSpace=wrap;connectable=0;strokeColor=inherit;overflow=hidden;fillColor=none;top=0;left=0;bottom=0;right=0;pointerEvents=1;" vertex="1" parent="dJ_z5oDo-pDch933jmG_-160">
          <mxGeometry x="23" width="23" height="20" as="geometry">
            <mxRectangle width="23" height="20" as="alternateBounds" />
          </mxGeometry>
        </mxCell>
        <mxCell id="dJ_z5oDo-pDch933jmG_-163" value="" style="shape=partialRectangle;html=1;whiteSpace=wrap;connectable=0;strokeColor=inherit;overflow=hidden;fillColor=none;top=0;left=0;bottom=0;right=0;pointerEvents=1;" vertex="1" parent="dJ_z5oDo-pDch933jmG_-160">
          <mxGeometry x="46" width="23" height="20" as="geometry">
            <mxRectangle width="23" height="20" as="alternateBounds" />
          </mxGeometry>
        </mxCell>
        <mxCell id="dJ_z5oDo-pDch933jmG_-164" value="" style="shape=partialRectangle;html=1;whiteSpace=wrap;connectable=0;strokeColor=inherit;overflow=hidden;fillColor=none;top=0;left=0;bottom=0;right=0;pointerEvents=1;" vertex="1" parent="dJ_z5oDo-pDch933jmG_-160">
          <mxGeometry x="69" width="23" height="20" as="geometry">
            <mxRectangle width="23" height="20" as="alternateBounds" />
          </mxGeometry>
        </mxCell>
        <mxCell id="dJ_z5oDo-pDch933jmG_-165" value="" style="shape=partialRectangle;html=1;whiteSpace=wrap;connectable=0;strokeColor=inherit;overflow=hidden;fillColor=none;top=0;left=0;bottom=0;right=0;pointerEvents=1;" vertex="1" parent="dJ_z5oDo-pDch933jmG_-160">
          <mxGeometry x="92" width="23" height="20" as="geometry">
            <mxRectangle width="23" height="20" as="alternateBounds" />
          </mxGeometry>
        </mxCell>
        <mxCell id="dJ_z5oDo-pDch933jmG_-166" value="" style="shape=partialRectangle;html=1;whiteSpace=wrap;connectable=0;strokeColor=inherit;overflow=hidden;fillColor=none;top=0;left=0;bottom=0;right=0;pointerEvents=1;" vertex="1" parent="dJ_z5oDo-pDch933jmG_-160">
          <mxGeometry x="115" width="23" height="20" as="geometry">
            <mxRectangle width="23" height="20" as="alternateBounds" />
          </mxGeometry>
        </mxCell>
        <mxCell id="dJ_z5oDo-pDch933jmG_-167" value="" style="shape=partialRectangle;html=1;whiteSpace=wrap;connectable=0;strokeColor=inherit;overflow=hidden;fillColor=none;top=0;left=0;bottom=0;right=0;pointerEvents=1;" vertex="1" parent="dJ_z5oDo-pDch933jmG_-160">
          <mxGeometry x="138" width="23" height="20" as="geometry">
            <mxRectangle width="23" height="20" as="alternateBounds" />
          </mxGeometry>
        </mxCell>
        <mxCell id="dJ_z5oDo-pDch933jmG_-168" value="" style="shape=partialRectangle;html=1;whiteSpace=wrap;connectable=0;strokeColor=inherit;overflow=hidden;fillColor=none;top=0;left=0;bottom=0;right=0;pointerEvents=1;" vertex="1" parent="dJ_z5oDo-pDch933jmG_-160">
          <mxGeometry x="161" width="26" height="20" as="geometry">
            <mxRectangle width="26" height="20" as="alternateBounds" />
          </mxGeometry>
        </mxCell>
        <mxCell id="dJ_z5oDo-pDch933jmG_-169" value="" style="shape=partialRectangle;html=1;whiteSpace=wrap;connectable=0;strokeColor=inherit;overflow=hidden;fillColor=none;top=0;left=0;bottom=0;right=0;pointerEvents=1;" vertex="1" parent="dJ_z5oDo-pDch933jmG_-160">
          <mxGeometry x="187" width="20" height="20" as="geometry">
            <mxRectangle width="20" height="20" as="alternateBounds" />
          </mxGeometry>
        </mxCell>
        <mxCell id="dJ_z5oDo-pDch933jmG_-170" value="" style="shape=partialRectangle;html=1;whiteSpace=wrap;connectable=0;strokeColor=inherit;overflow=hidden;fillColor=none;top=0;left=0;bottom=0;right=0;pointerEvents=1;" vertex="1" parent="dJ_z5oDo-pDch933jmG_-160">
          <mxGeometry x="207" width="23" height="20" as="geometry">
            <mxRectangle width="23" height="20" as="alternateBounds" />
          </mxGeometry>
        </mxCell>
        <mxCell id="dJ_z5oDo-pDch933jmG_-171" value="" style="shape=table;startSize=0;container=1;collapsible=0;childLayout=tableLayout;strokeWidth=2;" vertex="1" parent="1">
          <mxGeometry x="214" y="1188" width="230" height="20" as="geometry" />
        </mxCell>
        <mxCell id="dJ_z5oDo-pDch933jmG_-172" value="" style="shape=tableRow;horizontal=0;startSize=0;swimlaneHead=0;swimlaneBody=0;strokeColor=inherit;top=0;left=0;bottom=0;right=0;collapsible=0;dropTarget=0;fillColor=none;points=[[0,0.5],[1,0.5]];portConstraint=eastwest;" vertex="1" parent="dJ_z5oDo-pDch933jmG_-171">
          <mxGeometry width="230" height="20" as="geometry" />
        </mxCell>
        <mxCell id="dJ_z5oDo-pDch933jmG_-173" value="" style="shape=partialRectangle;html=1;whiteSpace=wrap;connectable=0;strokeColor=inherit;overflow=hidden;fillColor=none;top=0;left=0;bottom=0;right=0;pointerEvents=1;" vertex="1" parent="dJ_z5oDo-pDch933jmG_-172">
          <mxGeometry width="23" height="20" as="geometry">
            <mxRectangle width="23" height="20" as="alternateBounds" />
          </mxGeometry>
        </mxCell>
        <mxCell id="dJ_z5oDo-pDch933jmG_-174" value="" style="shape=partialRectangle;html=1;whiteSpace=wrap;connectable=0;strokeColor=inherit;overflow=hidden;fillColor=none;top=0;left=0;bottom=0;right=0;pointerEvents=1;" vertex="1" parent="dJ_z5oDo-pDch933jmG_-172">
          <mxGeometry x="23" width="26" height="20" as="geometry">
            <mxRectangle width="26" height="20" as="alternateBounds" />
          </mxGeometry>
        </mxCell>
        <mxCell id="dJ_z5oDo-pDch933jmG_-175" value="" style="shape=partialRectangle;html=1;whiteSpace=wrap;connectable=0;strokeColor=inherit;overflow=hidden;fillColor=none;top=0;left=0;bottom=0;right=0;pointerEvents=1;" vertex="1" parent="dJ_z5oDo-pDch933jmG_-172">
          <mxGeometry x="49" width="20" height="20" as="geometry">
            <mxRectangle width="20" height="20" as="alternateBounds" />
          </mxGeometry>
        </mxCell>
        <mxCell id="dJ_z5oDo-pDch933jmG_-176" value="" style="shape=partialRectangle;html=1;whiteSpace=wrap;connectable=0;strokeColor=inherit;overflow=hidden;fillColor=none;top=0;left=0;bottom=0;right=0;pointerEvents=1;" vertex="1" parent="dJ_z5oDo-pDch933jmG_-172">
          <mxGeometry x="69" width="26" height="20" as="geometry">
            <mxRectangle width="26" height="20" as="alternateBounds" />
          </mxGeometry>
        </mxCell>
        <mxCell id="dJ_z5oDo-pDch933jmG_-177" value="" style="shape=partialRectangle;html=1;whiteSpace=wrap;connectable=0;strokeColor=inherit;overflow=hidden;fillColor=none;top=0;left=0;bottom=0;right=0;pointerEvents=1;" vertex="1" parent="dJ_z5oDo-pDch933jmG_-172">
          <mxGeometry x="95" width="20" height="20" as="geometry">
            <mxRectangle width="20" height="20" as="alternateBounds" />
          </mxGeometry>
        </mxCell>
        <mxCell id="dJ_z5oDo-pDch933jmG_-178" value="" style="shape=partialRectangle;html=1;whiteSpace=wrap;connectable=0;strokeColor=inherit;overflow=hidden;fillColor=none;top=0;left=0;bottom=0;right=0;pointerEvents=1;" vertex="1" parent="dJ_z5oDo-pDch933jmG_-172">
          <mxGeometry x="115" width="23" height="20" as="geometry">
            <mxRectangle width="23" height="20" as="alternateBounds" />
          </mxGeometry>
        </mxCell>
        <mxCell id="dJ_z5oDo-pDch933jmG_-179" value="" style="shape=partialRectangle;html=1;whiteSpace=wrap;connectable=0;strokeColor=inherit;overflow=hidden;fillColor=none;top=0;left=0;bottom=0;right=0;pointerEvents=1;" vertex="1" parent="dJ_z5oDo-pDch933jmG_-172">
          <mxGeometry x="138" width="23" height="20" as="geometry">
            <mxRectangle width="23" height="20" as="alternateBounds" />
          </mxGeometry>
        </mxCell>
        <mxCell id="dJ_z5oDo-pDch933jmG_-180" value="" style="shape=partialRectangle;html=1;whiteSpace=wrap;connectable=0;strokeColor=inherit;overflow=hidden;fillColor=none;top=0;left=0;bottom=0;right=0;pointerEvents=1;" vertex="1" parent="dJ_z5oDo-pDch933jmG_-172">
          <mxGeometry x="161" width="23" height="20" as="geometry">
            <mxRectangle width="23" height="20" as="alternateBounds" />
          </mxGeometry>
        </mxCell>
        <mxCell id="dJ_z5oDo-pDch933jmG_-181" value="" style="shape=partialRectangle;html=1;whiteSpace=wrap;connectable=0;strokeColor=inherit;overflow=hidden;fillColor=none;top=0;left=0;bottom=0;right=0;pointerEvents=1;" vertex="1" parent="dJ_z5oDo-pDch933jmG_-172">
          <mxGeometry x="184" width="23" height="20" as="geometry">
            <mxRectangle width="23" height="20" as="alternateBounds" />
          </mxGeometry>
        </mxCell>
        <mxCell id="dJ_z5oDo-pDch933jmG_-182" value="" style="shape=partialRectangle;html=1;whiteSpace=wrap;connectable=0;strokeColor=inherit;overflow=hidden;fillColor=none;top=0;left=0;bottom=0;right=0;pointerEvents=1;" vertex="1" parent="dJ_z5oDo-pDch933jmG_-172">
          <mxGeometry x="207" width="23" height="20" as="geometry">
            <mxRectangle width="23" height="20" as="alternateBounds" />
          </mxGeometry>
        </mxCell>
        <mxCell id="dJ_z5oDo-pDch933jmG_-183" value="&lt;font style=&quot;font-size: 21px;&quot;&gt;Ciphertext&lt;/font&gt;" style="text;html=1;align=center;verticalAlign=middle;resizable=0;points=[];autosize=1;strokeColor=none;fillColor=none;" vertex="1" parent="1">
          <mxGeometry x="273" y="1465" width="120" height="40" as="geometry" />
        </mxCell>
        <mxCell id="dJ_z5oDo-pDch933jmG_-184" value="&lt;font style=&quot;font-size: 21px;&quot;&gt;Plaintext&lt;/font&gt;" style="text;html=1;align=center;verticalAlign=middle;resizable=0;points=[];autosize=1;strokeColor=none;fillColor=none;" vertex="1" parent="1">
          <mxGeometry x="292" y="1150" width="100" height="40" as="geometry" />
        </mxCell>
        <mxCell id="dJ_z5oDo-pDch933jmG_-185" style="edgeStyle=orthogonalEdgeStyle;rounded=0;orthogonalLoop=1;jettySize=auto;html=1;entryX=0;entryY=0.5;entryDx=0;entryDy=0;strokeWidth=2;" edge="1" parent="1">
          <mxGeometry relative="1" as="geometry">
            <mxPoint x="197" y="1366" as="sourcePoint" />
            <mxPoint x="252" y="1366" as="targetPoint" />
          </mxGeometry>
        </mxCell>
        <mxCell id="dJ_z5oDo-pDch933jmG_-186" value="&lt;font style=&quot;font-size: 21px;&quot;&gt;Key&lt;/font&gt;" style="text;html=1;align=center;verticalAlign=middle;resizable=0;points=[];autosize=1;strokeColor=none;fillColor=none;" vertex="1" parent="1">
          <mxGeometry x="142" y="1346" width="60" height="40" as="geometry" />
        </mxCell>
        <mxCell id="dJ_z5oDo-pDch933jmG_-187" style="edgeStyle=orthogonalEdgeStyle;rounded=0;orthogonalLoop=1;jettySize=auto;html=1;strokeWidth=2;" edge="1" parent="1">
          <mxGeometry relative="1" as="geometry">
            <mxPoint x="334" y="1285" as="sourcePoint" />
            <mxPoint x="334" y="1325" as="targetPoint" />
          </mxGeometry>
        </mxCell>
        <mxCell id="dJ_z5oDo-pDch933jmG_-188" value="" style="shape=table;startSize=0;container=1;collapsible=0;childLayout=tableLayout;strokeWidth=2;" vertex="1" parent="1">
          <mxGeometry x="58" y="1277" width="230" height="23" as="geometry" />
        </mxCell>
        <mxCell id="dJ_z5oDo-pDch933jmG_-189" value="" style="shape=tableRow;horizontal=0;startSize=0;swimlaneHead=0;swimlaneBody=0;strokeColor=inherit;top=0;left=0;bottom=0;right=0;collapsible=0;dropTarget=0;fillColor=none;points=[[0,0.5],[1,0.5]];portConstraint=eastwest;" vertex="1" parent="dJ_z5oDo-pDch933jmG_-188">
          <mxGeometry width="230" height="23" as="geometry" />
        </mxCell>
        <mxCell id="dJ_z5oDo-pDch933jmG_-190" value="" style="shape=partialRectangle;html=1;whiteSpace=wrap;connectable=0;strokeColor=inherit;overflow=hidden;fillColor=none;top=0;left=0;bottom=0;right=0;pointerEvents=1;" vertex="1" parent="dJ_z5oDo-pDch933jmG_-189">
          <mxGeometry width="23" height="23" as="geometry">
            <mxRectangle width="23" height="23" as="alternateBounds" />
          </mxGeometry>
        </mxCell>
        <mxCell id="dJ_z5oDo-pDch933jmG_-191" value="" style="shape=partialRectangle;html=1;whiteSpace=wrap;connectable=0;strokeColor=inherit;overflow=hidden;fillColor=none;top=0;left=0;bottom=0;right=0;pointerEvents=1;" vertex="1" parent="dJ_z5oDo-pDch933jmG_-189">
          <mxGeometry x="23" width="23" height="23" as="geometry">
            <mxRectangle width="23" height="23" as="alternateBounds" />
          </mxGeometry>
        </mxCell>
        <mxCell id="dJ_z5oDo-pDch933jmG_-192" value="" style="shape=partialRectangle;html=1;whiteSpace=wrap;connectable=0;strokeColor=inherit;overflow=hidden;fillColor=none;top=0;left=0;bottom=0;right=0;pointerEvents=1;" vertex="1" parent="dJ_z5oDo-pDch933jmG_-189">
          <mxGeometry x="46" width="23" height="23" as="geometry">
            <mxRectangle width="23" height="23" as="alternateBounds" />
          </mxGeometry>
        </mxCell>
        <mxCell id="dJ_z5oDo-pDch933jmG_-193" value="" style="shape=partialRectangle;html=1;whiteSpace=wrap;connectable=0;strokeColor=inherit;overflow=hidden;fillColor=none;top=0;left=0;bottom=0;right=0;pointerEvents=1;" vertex="1" parent="dJ_z5oDo-pDch933jmG_-189">
          <mxGeometry x="69" width="23" height="23" as="geometry">
            <mxRectangle width="23" height="23" as="alternateBounds" />
          </mxGeometry>
        </mxCell>
        <mxCell id="dJ_z5oDo-pDch933jmG_-194" value="" style="shape=partialRectangle;html=1;whiteSpace=wrap;connectable=0;strokeColor=inherit;overflow=hidden;fillColor=none;top=0;left=0;bottom=0;right=0;pointerEvents=1;" vertex="1" parent="dJ_z5oDo-pDch933jmG_-189">
          <mxGeometry x="92" width="23" height="23" as="geometry">
            <mxRectangle width="23" height="23" as="alternateBounds" />
          </mxGeometry>
        </mxCell>
        <mxCell id="dJ_z5oDo-pDch933jmG_-195" value="" style="shape=partialRectangle;html=1;whiteSpace=wrap;connectable=0;strokeColor=inherit;overflow=hidden;fillColor=none;top=0;left=0;bottom=0;right=0;pointerEvents=1;" vertex="1" parent="dJ_z5oDo-pDch933jmG_-189">
          <mxGeometry x="115" width="23" height="23" as="geometry">
            <mxRectangle width="23" height="23" as="alternateBounds" />
          </mxGeometry>
        </mxCell>
        <mxCell id="dJ_z5oDo-pDch933jmG_-196" value="" style="shape=partialRectangle;html=1;whiteSpace=wrap;connectable=0;strokeColor=inherit;overflow=hidden;fillColor=none;top=0;left=0;bottom=0;right=0;pointerEvents=1;" vertex="1" parent="dJ_z5oDo-pDch933jmG_-189">
          <mxGeometry x="138" width="23" height="23" as="geometry">
            <mxRectangle width="23" height="23" as="alternateBounds" />
          </mxGeometry>
        </mxCell>
        <mxCell id="dJ_z5oDo-pDch933jmG_-197" value="" style="shape=partialRectangle;html=1;whiteSpace=wrap;connectable=0;strokeColor=inherit;overflow=hidden;fillColor=none;top=0;left=0;bottom=0;right=0;pointerEvents=1;" vertex="1" parent="dJ_z5oDo-pDch933jmG_-189">
          <mxGeometry x="161" width="23" height="23" as="geometry">
            <mxRectangle width="23" height="23" as="alternateBounds" />
          </mxGeometry>
        </mxCell>
        <mxCell id="dJ_z5oDo-pDch933jmG_-198" value="" style="shape=partialRectangle;html=1;whiteSpace=wrap;connectable=0;strokeColor=inherit;overflow=hidden;fillColor=none;top=0;left=0;bottom=0;right=0;pointerEvents=1;" vertex="1" parent="dJ_z5oDo-pDch933jmG_-189">
          <mxGeometry x="184" width="23" height="23" as="geometry">
            <mxRectangle width="23" height="23" as="alternateBounds" />
          </mxGeometry>
        </mxCell>
        <mxCell id="dJ_z5oDo-pDch933jmG_-199" value="" style="shape=partialRectangle;html=1;whiteSpace=wrap;connectable=0;strokeColor=inherit;overflow=hidden;fillColor=none;top=0;left=0;bottom=0;right=0;pointerEvents=1;" vertex="1" parent="dJ_z5oDo-pDch933jmG_-189">
          <mxGeometry x="207" width="23" height="23" as="geometry">
            <mxRectangle width="23" height="23" as="alternateBounds" />
          </mxGeometry>
        </mxCell>
        <mxCell id="dJ_z5oDo-pDch933jmG_-200" value="&lt;font style=&quot;font-size: 21px;&quot;&gt;Initialization Vector (IV)&lt;/font&gt;" style="text;html=1;align=center;verticalAlign=middle;resizable=0;points=[];autosize=1;strokeColor=none;fillColor=none;" vertex="1" parent="1">
          <mxGeometry x="51" y="1230" width="240" height="40" as="geometry" />
        </mxCell>
        <mxCell id="dJ_z5oDo-pDch933jmG_-201" value="" style="shape=image;verticalLabelPosition=bottom;labelBackgroundColor=default;verticalAlign=top;aspect=fixed;imageAspect=0;image=https://images.freeimages.com/vhq/images/previews/20d/logic-xor-symbol-clip-art-76039.jpg;" vertex="1" parent="1">
          <mxGeometry x="319" y="1255" width="30" height="30" as="geometry" />
        </mxCell>
        <mxCell id="dJ_z5oDo-pDch933jmG_-202" style="edgeStyle=orthogonalEdgeStyle;rounded=0;orthogonalLoop=1;jettySize=auto;html=1;entryX=0.535;entryY=0.025;entryDx=0;entryDy=0;entryPerimeter=0;strokeWidth=2;" edge="1" parent="1">
          <mxGeometry relative="1" as="geometry">
            <mxPoint x="334" y="1403" as="sourcePoint" />
            <mxPoint x="334.04999999999995" y="1448.5" as="targetPoint" />
          </mxGeometry>
        </mxCell>
        <mxCell id="dJ_z5oDo-pDch933jmG_-203" style="edgeStyle=orthogonalEdgeStyle;rounded=0;orthogonalLoop=1;jettySize=auto;html=1;entryX=0;entryY=0.5;entryDx=0;entryDy=0;strokeWidth=2;" edge="1" parent="1">
          <mxGeometry relative="1" as="geometry">
            <mxPoint x="262" y="1269" as="sourcePoint" />
            <mxPoint x="317" y="1269" as="targetPoint" />
          </mxGeometry>
        </mxCell>
        <mxCell id="dJ_z5oDo-pDch933jmG_-204" style="edgeStyle=orthogonalEdgeStyle;rounded=0;orthogonalLoop=1;jettySize=auto;html=1;entryX=0.535;entryY=0.025;entryDx=0;entryDy=0;entryPerimeter=0;strokeWidth=2;" edge="1" parent="1">
          <mxGeometry relative="1" as="geometry">
            <mxPoint x="692.5" y="1208" as="sourcePoint" />
            <mxPoint x="692.55" y="1253.5" as="targetPoint" />
          </mxGeometry>
        </mxCell>
        <mxCell id="dJ_z5oDo-pDch933jmG_-205" value="block cipher&lt;br style=&quot;font-size: 21px;&quot;&gt;encryption" style="rounded=0;whiteSpace=wrap;html=1;fontSize=21;strokeWidth=2;" vertex="1" parent="1">
          <mxGeometry x="612.5" y="1331" width="165" height="70" as="geometry" />
        </mxCell>
        <mxCell id="dJ_z5oDo-pDch933jmG_-206" value="" style="shape=table;startSize=0;container=1;collapsible=0;childLayout=tableLayout;strokeWidth=2;" vertex="1" parent="1">
          <mxGeometry x="576.5" y="1451" width="230" height="20" as="geometry" />
        </mxCell>
        <mxCell id="dJ_z5oDo-pDch933jmG_-207" value="" style="shape=tableRow;horizontal=0;startSize=0;swimlaneHead=0;swimlaneBody=0;strokeColor=inherit;top=0;left=0;bottom=0;right=0;collapsible=0;dropTarget=0;fillColor=none;points=[[0,0.5],[1,0.5]];portConstraint=eastwest;" vertex="1" parent="dJ_z5oDo-pDch933jmG_-206">
          <mxGeometry width="230" height="20" as="geometry" />
        </mxCell>
        <mxCell id="dJ_z5oDo-pDch933jmG_-208" value="" style="shape=partialRectangle;html=1;whiteSpace=wrap;connectable=0;strokeColor=inherit;overflow=hidden;fillColor=none;top=0;left=0;bottom=0;right=0;pointerEvents=1;" vertex="1" parent="dJ_z5oDo-pDch933jmG_-207">
          <mxGeometry width="23" height="20" as="geometry">
            <mxRectangle width="23" height="20" as="alternateBounds" />
          </mxGeometry>
        </mxCell>
        <mxCell id="dJ_z5oDo-pDch933jmG_-209" value="" style="shape=partialRectangle;html=1;whiteSpace=wrap;connectable=0;strokeColor=inherit;overflow=hidden;fillColor=none;top=0;left=0;bottom=0;right=0;pointerEvents=1;" vertex="1" parent="dJ_z5oDo-pDch933jmG_-207">
          <mxGeometry x="23" width="23" height="20" as="geometry">
            <mxRectangle width="23" height="20" as="alternateBounds" />
          </mxGeometry>
        </mxCell>
        <mxCell id="dJ_z5oDo-pDch933jmG_-210" value="" style="shape=partialRectangle;html=1;whiteSpace=wrap;connectable=0;strokeColor=inherit;overflow=hidden;fillColor=none;top=0;left=0;bottom=0;right=0;pointerEvents=1;" vertex="1" parent="dJ_z5oDo-pDch933jmG_-207">
          <mxGeometry x="46" width="23" height="20" as="geometry">
            <mxRectangle width="23" height="20" as="alternateBounds" />
          </mxGeometry>
        </mxCell>
        <mxCell id="dJ_z5oDo-pDch933jmG_-211" value="" style="shape=partialRectangle;html=1;whiteSpace=wrap;connectable=0;strokeColor=inherit;overflow=hidden;fillColor=none;top=0;left=0;bottom=0;right=0;pointerEvents=1;" vertex="1" parent="dJ_z5oDo-pDch933jmG_-207">
          <mxGeometry x="69" width="23" height="20" as="geometry">
            <mxRectangle width="23" height="20" as="alternateBounds" />
          </mxGeometry>
        </mxCell>
        <mxCell id="dJ_z5oDo-pDch933jmG_-212" value="" style="shape=partialRectangle;html=1;whiteSpace=wrap;connectable=0;strokeColor=inherit;overflow=hidden;fillColor=none;top=0;left=0;bottom=0;right=0;pointerEvents=1;" vertex="1" parent="dJ_z5oDo-pDch933jmG_-207">
          <mxGeometry x="92" width="23" height="20" as="geometry">
            <mxRectangle width="23" height="20" as="alternateBounds" />
          </mxGeometry>
        </mxCell>
        <mxCell id="dJ_z5oDo-pDch933jmG_-213" value="" style="shape=partialRectangle;html=1;whiteSpace=wrap;connectable=0;strokeColor=inherit;overflow=hidden;fillColor=none;top=0;left=0;bottom=0;right=0;pointerEvents=1;" vertex="1" parent="dJ_z5oDo-pDch933jmG_-207">
          <mxGeometry x="115" width="23" height="20" as="geometry">
            <mxRectangle width="23" height="20" as="alternateBounds" />
          </mxGeometry>
        </mxCell>
        <mxCell id="dJ_z5oDo-pDch933jmG_-214" value="" style="shape=partialRectangle;html=1;whiteSpace=wrap;connectable=0;strokeColor=inherit;overflow=hidden;fillColor=none;top=0;left=0;bottom=0;right=0;pointerEvents=1;" vertex="1" parent="dJ_z5oDo-pDch933jmG_-207">
          <mxGeometry x="138" width="23" height="20" as="geometry">
            <mxRectangle width="23" height="20" as="alternateBounds" />
          </mxGeometry>
        </mxCell>
        <mxCell id="dJ_z5oDo-pDch933jmG_-215" value="" style="shape=partialRectangle;html=1;whiteSpace=wrap;connectable=0;strokeColor=inherit;overflow=hidden;fillColor=none;top=0;left=0;bottom=0;right=0;pointerEvents=1;" vertex="1" parent="dJ_z5oDo-pDch933jmG_-207">
          <mxGeometry x="161" width="26" height="20" as="geometry">
            <mxRectangle width="26" height="20" as="alternateBounds" />
          </mxGeometry>
        </mxCell>
        <mxCell id="dJ_z5oDo-pDch933jmG_-216" value="" style="shape=partialRectangle;html=1;whiteSpace=wrap;connectable=0;strokeColor=inherit;overflow=hidden;fillColor=none;top=0;left=0;bottom=0;right=0;pointerEvents=1;" vertex="1" parent="dJ_z5oDo-pDch933jmG_-207">
          <mxGeometry x="187" width="20" height="20" as="geometry">
            <mxRectangle width="20" height="20" as="alternateBounds" />
          </mxGeometry>
        </mxCell>
        <mxCell id="dJ_z5oDo-pDch933jmG_-217" value="" style="shape=partialRectangle;html=1;whiteSpace=wrap;connectable=0;strokeColor=inherit;overflow=hidden;fillColor=none;top=0;left=0;bottom=0;right=0;pointerEvents=1;" vertex="1" parent="dJ_z5oDo-pDch933jmG_-207">
          <mxGeometry x="207" width="23" height="20" as="geometry">
            <mxRectangle width="23" height="20" as="alternateBounds" />
          </mxGeometry>
        </mxCell>
        <mxCell id="dJ_z5oDo-pDch933jmG_-218" value="" style="shape=table;startSize=0;container=1;collapsible=0;childLayout=tableLayout;strokeWidth=2;" vertex="1" parent="1">
          <mxGeometry x="572.5" y="1188" width="230" height="20" as="geometry" />
        </mxCell>
        <mxCell id="dJ_z5oDo-pDch933jmG_-219" value="" style="shape=tableRow;horizontal=0;startSize=0;swimlaneHead=0;swimlaneBody=0;strokeColor=inherit;top=0;left=0;bottom=0;right=0;collapsible=0;dropTarget=0;fillColor=none;points=[[0,0.5],[1,0.5]];portConstraint=eastwest;" vertex="1" parent="dJ_z5oDo-pDch933jmG_-218">
          <mxGeometry width="230" height="20" as="geometry" />
        </mxCell>
        <mxCell id="dJ_z5oDo-pDch933jmG_-220" value="" style="shape=partialRectangle;html=1;whiteSpace=wrap;connectable=0;strokeColor=inherit;overflow=hidden;fillColor=none;top=0;left=0;bottom=0;right=0;pointerEvents=1;" vertex="1" parent="dJ_z5oDo-pDch933jmG_-219">
          <mxGeometry width="23" height="20" as="geometry">
            <mxRectangle width="23" height="20" as="alternateBounds" />
          </mxGeometry>
        </mxCell>
        <mxCell id="dJ_z5oDo-pDch933jmG_-221" value="" style="shape=partialRectangle;html=1;whiteSpace=wrap;connectable=0;strokeColor=inherit;overflow=hidden;fillColor=none;top=0;left=0;bottom=0;right=0;pointerEvents=1;" vertex="1" parent="dJ_z5oDo-pDch933jmG_-219">
          <mxGeometry x="23" width="26" height="20" as="geometry">
            <mxRectangle width="26" height="20" as="alternateBounds" />
          </mxGeometry>
        </mxCell>
        <mxCell id="dJ_z5oDo-pDch933jmG_-222" value="" style="shape=partialRectangle;html=1;whiteSpace=wrap;connectable=0;strokeColor=inherit;overflow=hidden;fillColor=none;top=0;left=0;bottom=0;right=0;pointerEvents=1;" vertex="1" parent="dJ_z5oDo-pDch933jmG_-219">
          <mxGeometry x="49" width="20" height="20" as="geometry">
            <mxRectangle width="20" height="20" as="alternateBounds" />
          </mxGeometry>
        </mxCell>
        <mxCell id="dJ_z5oDo-pDch933jmG_-223" value="" style="shape=partialRectangle;html=1;whiteSpace=wrap;connectable=0;strokeColor=inherit;overflow=hidden;fillColor=none;top=0;left=0;bottom=0;right=0;pointerEvents=1;" vertex="1" parent="dJ_z5oDo-pDch933jmG_-219">
          <mxGeometry x="69" width="26" height="20" as="geometry">
            <mxRectangle width="26" height="20" as="alternateBounds" />
          </mxGeometry>
        </mxCell>
        <mxCell id="dJ_z5oDo-pDch933jmG_-224" value="" style="shape=partialRectangle;html=1;whiteSpace=wrap;connectable=0;strokeColor=inherit;overflow=hidden;fillColor=none;top=0;left=0;bottom=0;right=0;pointerEvents=1;" vertex="1" parent="dJ_z5oDo-pDch933jmG_-219">
          <mxGeometry x="95" width="20" height="20" as="geometry">
            <mxRectangle width="20" height="20" as="alternateBounds" />
          </mxGeometry>
        </mxCell>
        <mxCell id="dJ_z5oDo-pDch933jmG_-225" value="" style="shape=partialRectangle;html=1;whiteSpace=wrap;connectable=0;strokeColor=inherit;overflow=hidden;fillColor=none;top=0;left=0;bottom=0;right=0;pointerEvents=1;" vertex="1" parent="dJ_z5oDo-pDch933jmG_-219">
          <mxGeometry x="115" width="23" height="20" as="geometry">
            <mxRectangle width="23" height="20" as="alternateBounds" />
          </mxGeometry>
        </mxCell>
        <mxCell id="dJ_z5oDo-pDch933jmG_-226" value="" style="shape=partialRectangle;html=1;whiteSpace=wrap;connectable=0;strokeColor=inherit;overflow=hidden;fillColor=none;top=0;left=0;bottom=0;right=0;pointerEvents=1;" vertex="1" parent="dJ_z5oDo-pDch933jmG_-219">
          <mxGeometry x="138" width="23" height="20" as="geometry">
            <mxRectangle width="23" height="20" as="alternateBounds" />
          </mxGeometry>
        </mxCell>
        <mxCell id="dJ_z5oDo-pDch933jmG_-227" value="" style="shape=partialRectangle;html=1;whiteSpace=wrap;connectable=0;strokeColor=inherit;overflow=hidden;fillColor=none;top=0;left=0;bottom=0;right=0;pointerEvents=1;" vertex="1" parent="dJ_z5oDo-pDch933jmG_-219">
          <mxGeometry x="161" width="23" height="20" as="geometry">
            <mxRectangle width="23" height="20" as="alternateBounds" />
          </mxGeometry>
        </mxCell>
        <mxCell id="dJ_z5oDo-pDch933jmG_-228" value="" style="shape=partialRectangle;html=1;whiteSpace=wrap;connectable=0;strokeColor=inherit;overflow=hidden;fillColor=none;top=0;left=0;bottom=0;right=0;pointerEvents=1;" vertex="1" parent="dJ_z5oDo-pDch933jmG_-219">
          <mxGeometry x="184" width="23" height="20" as="geometry">
            <mxRectangle width="23" height="20" as="alternateBounds" />
          </mxGeometry>
        </mxCell>
        <mxCell id="dJ_z5oDo-pDch933jmG_-229" value="" style="shape=partialRectangle;html=1;whiteSpace=wrap;connectable=0;strokeColor=inherit;overflow=hidden;fillColor=none;top=0;left=0;bottom=0;right=0;pointerEvents=1;" vertex="1" parent="dJ_z5oDo-pDch933jmG_-219">
          <mxGeometry x="207" width="23" height="20" as="geometry">
            <mxRectangle width="23" height="20" as="alternateBounds" />
          </mxGeometry>
        </mxCell>
        <mxCell id="dJ_z5oDo-pDch933jmG_-230" value="&lt;font style=&quot;font-size: 21px;&quot;&gt;Ciphertext&lt;/font&gt;" style="text;html=1;align=center;verticalAlign=middle;resizable=0;points=[];autosize=1;strokeColor=none;fillColor=none;" vertex="1" parent="1">
          <mxGeometry x="631.5" y="1465" width="120" height="40" as="geometry" />
        </mxCell>
        <mxCell id="dJ_z5oDo-pDch933jmG_-231" value="&lt;font style=&quot;font-size: 21px;&quot;&gt;Plaintext&lt;/font&gt;" style="text;html=1;align=center;verticalAlign=middle;resizable=0;points=[];autosize=1;strokeColor=none;fillColor=none;" vertex="1" parent="1">
          <mxGeometry x="650.5" y="1150" width="100" height="40" as="geometry" />
        </mxCell>
        <mxCell id="dJ_z5oDo-pDch933jmG_-232" style="edgeStyle=orthogonalEdgeStyle;rounded=0;orthogonalLoop=1;jettySize=auto;html=1;entryX=0;entryY=0.5;entryDx=0;entryDy=0;strokeWidth=2;" edge="1" parent="1">
          <mxGeometry relative="1" as="geometry">
            <mxPoint x="554.5" y="1366" as="sourcePoint" />
            <mxPoint x="609.5" y="1366" as="targetPoint" />
          </mxGeometry>
        </mxCell>
        <mxCell id="dJ_z5oDo-pDch933jmG_-233" value="&lt;font style=&quot;font-size: 21px;&quot;&gt;Key&lt;/font&gt;" style="text;html=1;align=center;verticalAlign=middle;resizable=0;points=[];autosize=1;strokeColor=none;fillColor=none;" vertex="1" parent="1">
          <mxGeometry x="499.5" y="1346" width="60" height="40" as="geometry" />
        </mxCell>
        <mxCell id="dJ_z5oDo-pDch933jmG_-234" style="edgeStyle=orthogonalEdgeStyle;rounded=0;orthogonalLoop=1;jettySize=auto;html=1;strokeWidth=2;" edge="1" parent="1">
          <mxGeometry relative="1" as="geometry">
            <mxPoint x="692.5" y="1285" as="sourcePoint" />
            <mxPoint x="692.5" y="1325" as="targetPoint" />
          </mxGeometry>
        </mxCell>
        <mxCell id="dJ_z5oDo-pDch933jmG_-235" value="" style="shape=partialRectangle;html=1;whiteSpace=wrap;connectable=0;strokeColor=inherit;overflow=hidden;fillColor=none;top=0;left=0;bottom=0;right=0;pointerEvents=1;" vertex="1" parent="1">
          <mxGeometry x="485.5" y="1277" width="23" height="20" as="geometry">
            <mxRectangle width="23" height="20" as="alternateBounds" />
          </mxGeometry>
        </mxCell>
        <mxCell id="dJ_z5oDo-pDch933jmG_-236" value="" style="shape=partialRectangle;html=1;whiteSpace=wrap;connectable=0;strokeColor=inherit;overflow=hidden;fillColor=none;top=0;left=0;bottom=0;right=0;pointerEvents=1;" vertex="1" parent="1">
          <mxGeometry x="508.5" y="1277" width="23" height="20" as="geometry">
            <mxRectangle width="23" height="20" as="alternateBounds" />
          </mxGeometry>
        </mxCell>
        <mxCell id="dJ_z5oDo-pDch933jmG_-237" value="" style="shape=partialRectangle;html=1;whiteSpace=wrap;connectable=0;strokeColor=inherit;overflow=hidden;fillColor=none;top=0;left=0;bottom=0;right=0;pointerEvents=1;" vertex="1" parent="1">
          <mxGeometry x="531.5" y="1277" width="23" height="20" as="geometry">
            <mxRectangle width="23" height="20" as="alternateBounds" />
          </mxGeometry>
        </mxCell>
        <mxCell id="dJ_z5oDo-pDch933jmG_-238" value="" style="shape=partialRectangle;html=1;whiteSpace=wrap;connectable=0;strokeColor=inherit;overflow=hidden;fillColor=none;top=0;left=0;bottom=0;right=0;pointerEvents=1;" vertex="1" parent="1">
          <mxGeometry x="554.5" y="1277" width="23" height="20" as="geometry">
            <mxRectangle width="23" height="20" as="alternateBounds" />
          </mxGeometry>
        </mxCell>
        <mxCell id="dJ_z5oDo-pDch933jmG_-239" value="" style="shape=partialRectangle;html=1;whiteSpace=wrap;connectable=0;strokeColor=inherit;overflow=hidden;fillColor=none;top=0;left=0;bottom=0;right=0;pointerEvents=1;" vertex="1" parent="1">
          <mxGeometry x="577.5" y="1277" width="23" height="20" as="geometry">
            <mxRectangle width="23" height="20" as="alternateBounds" />
          </mxGeometry>
        </mxCell>
        <mxCell id="dJ_z5oDo-pDch933jmG_-240" value="" style="shape=partialRectangle;html=1;whiteSpace=wrap;connectable=0;strokeColor=inherit;overflow=hidden;fillColor=none;top=0;left=0;bottom=0;right=0;pointerEvents=1;" vertex="1" parent="1">
          <mxGeometry x="600.5" y="1277" width="23" height="20" as="geometry">
            <mxRectangle width="23" height="20" as="alternateBounds" />
          </mxGeometry>
        </mxCell>
        <mxCell id="dJ_z5oDo-pDch933jmG_-241" value="" style="shape=partialRectangle;html=1;whiteSpace=wrap;connectable=0;strokeColor=inherit;overflow=hidden;fillColor=none;top=0;left=0;bottom=0;right=0;pointerEvents=1;" vertex="1" parent="1">
          <mxGeometry x="623.5" y="1277" width="23" height="20" as="geometry">
            <mxRectangle width="23" height="20" as="alternateBounds" />
          </mxGeometry>
        </mxCell>
        <mxCell id="dJ_z5oDo-pDch933jmG_-242" value="" style="shape=image;verticalLabelPosition=bottom;labelBackgroundColor=default;verticalAlign=top;aspect=fixed;imageAspect=0;image=https://images.freeimages.com/vhq/images/previews/20d/logic-xor-symbol-clip-art-76039.jpg;" vertex="1" parent="1">
          <mxGeometry x="677.5" y="1255" width="30" height="30" as="geometry" />
        </mxCell>
        <mxCell id="dJ_z5oDo-pDch933jmG_-243" style="edgeStyle=orthogonalEdgeStyle;rounded=0;orthogonalLoop=1;jettySize=auto;html=1;entryX=0.535;entryY=0.025;entryDx=0;entryDy=0;entryPerimeter=0;strokeWidth=2;" edge="1" parent="1">
          <mxGeometry relative="1" as="geometry">
            <mxPoint x="692.5" y="1403" as="sourcePoint" />
            <mxPoint x="692.55" y="1448.5" as="targetPoint" />
          </mxGeometry>
        </mxCell>
        <mxCell id="dJ_z5oDo-pDch933jmG_-244" style="edgeStyle=orthogonalEdgeStyle;rounded=0;orthogonalLoop=1;jettySize=auto;html=1;entryX=0;entryY=0.5;entryDx=0;entryDy=0;strokeWidth=2;" edge="1" parent="1">
          <mxGeometry relative="1" as="geometry">
            <mxPoint x="620.5" y="1269" as="sourcePoint" />
            <mxPoint x="675.5" y="1269" as="targetPoint" />
          </mxGeometry>
        </mxCell>
        <mxCell id="dJ_z5oDo-pDch933jmG_-245" value="" style="shape=table;startSize=0;container=1;collapsible=0;childLayout=tableLayout;strokeWidth=2;" vertex="1" parent="1">
          <mxGeometry x="417.5" y="1277" width="230" height="23" as="geometry" />
        </mxCell>
        <mxCell id="dJ_z5oDo-pDch933jmG_-246" value="" style="shape=tableRow;horizontal=0;startSize=0;swimlaneHead=0;swimlaneBody=0;strokeColor=inherit;top=0;left=0;bottom=0;right=0;collapsible=0;dropTarget=0;fillColor=none;points=[[0,0.5],[1,0.5]];portConstraint=eastwest;" vertex="1" parent="dJ_z5oDo-pDch933jmG_-245">
          <mxGeometry width="230" height="23" as="geometry" />
        </mxCell>
        <mxCell id="dJ_z5oDo-pDch933jmG_-247" value="" style="shape=partialRectangle;html=1;whiteSpace=wrap;connectable=0;strokeColor=inherit;overflow=hidden;fillColor=none;top=0;left=0;bottom=0;right=0;pointerEvents=1;" vertex="1" parent="dJ_z5oDo-pDch933jmG_-246">
          <mxGeometry width="23" height="23" as="geometry">
            <mxRectangle width="23" height="23" as="alternateBounds" />
          </mxGeometry>
        </mxCell>
        <mxCell id="dJ_z5oDo-pDch933jmG_-248" value="" style="shape=partialRectangle;html=1;whiteSpace=wrap;connectable=0;strokeColor=inherit;overflow=hidden;fillColor=none;top=0;left=0;bottom=0;right=0;pointerEvents=1;" vertex="1" parent="dJ_z5oDo-pDch933jmG_-246">
          <mxGeometry x="23" width="23" height="23" as="geometry">
            <mxRectangle width="23" height="23" as="alternateBounds" />
          </mxGeometry>
        </mxCell>
        <mxCell id="dJ_z5oDo-pDch933jmG_-249" value="" style="shape=partialRectangle;html=1;whiteSpace=wrap;connectable=0;strokeColor=inherit;overflow=hidden;fillColor=none;top=0;left=0;bottom=0;right=0;pointerEvents=1;" vertex="1" parent="dJ_z5oDo-pDch933jmG_-246">
          <mxGeometry x="46" width="23" height="23" as="geometry">
            <mxRectangle width="23" height="23" as="alternateBounds" />
          </mxGeometry>
        </mxCell>
        <mxCell id="dJ_z5oDo-pDch933jmG_-250" value="" style="shape=partialRectangle;html=1;whiteSpace=wrap;connectable=0;strokeColor=inherit;overflow=hidden;fillColor=none;top=0;left=0;bottom=0;right=0;pointerEvents=1;" vertex="1" parent="dJ_z5oDo-pDch933jmG_-246">
          <mxGeometry x="69" width="23" height="23" as="geometry">
            <mxRectangle width="23" height="23" as="alternateBounds" />
          </mxGeometry>
        </mxCell>
        <mxCell id="dJ_z5oDo-pDch933jmG_-251" value="" style="shape=partialRectangle;html=1;whiteSpace=wrap;connectable=0;strokeColor=inherit;overflow=hidden;fillColor=none;top=0;left=0;bottom=0;right=0;pointerEvents=1;" vertex="1" parent="dJ_z5oDo-pDch933jmG_-246">
          <mxGeometry x="92" width="23" height="23" as="geometry">
            <mxRectangle width="23" height="23" as="alternateBounds" />
          </mxGeometry>
        </mxCell>
        <mxCell id="dJ_z5oDo-pDch933jmG_-252" value="" style="shape=partialRectangle;html=1;whiteSpace=wrap;connectable=0;strokeColor=inherit;overflow=hidden;fillColor=none;top=0;left=0;bottom=0;right=0;pointerEvents=1;" vertex="1" parent="dJ_z5oDo-pDch933jmG_-246">
          <mxGeometry x="115" width="23" height="23" as="geometry">
            <mxRectangle width="23" height="23" as="alternateBounds" />
          </mxGeometry>
        </mxCell>
        <mxCell id="dJ_z5oDo-pDch933jmG_-253" value="" style="shape=partialRectangle;html=1;whiteSpace=wrap;connectable=0;strokeColor=inherit;overflow=hidden;fillColor=none;top=0;left=0;bottom=0;right=0;pointerEvents=1;" vertex="1" parent="dJ_z5oDo-pDch933jmG_-246">
          <mxGeometry x="138" width="23" height="23" as="geometry">
            <mxRectangle width="23" height="23" as="alternateBounds" />
          </mxGeometry>
        </mxCell>
        <mxCell id="dJ_z5oDo-pDch933jmG_-254" value="" style="shape=partialRectangle;html=1;whiteSpace=wrap;connectable=0;strokeColor=inherit;overflow=hidden;fillColor=none;top=0;left=0;bottom=0;right=0;pointerEvents=1;" vertex="1" parent="dJ_z5oDo-pDch933jmG_-246">
          <mxGeometry x="161" width="23" height="23" as="geometry">
            <mxRectangle width="23" height="23" as="alternateBounds" />
          </mxGeometry>
        </mxCell>
        <mxCell id="dJ_z5oDo-pDch933jmG_-255" value="" style="shape=partialRectangle;html=1;whiteSpace=wrap;connectable=0;strokeColor=inherit;overflow=hidden;fillColor=none;top=0;left=0;bottom=0;right=0;pointerEvents=1;" vertex="1" parent="dJ_z5oDo-pDch933jmG_-246">
          <mxGeometry x="184" width="23" height="23" as="geometry">
            <mxRectangle width="23" height="23" as="alternateBounds" />
          </mxGeometry>
        </mxCell>
        <mxCell id="dJ_z5oDo-pDch933jmG_-256" value="" style="shape=partialRectangle;html=1;whiteSpace=wrap;connectable=0;strokeColor=inherit;overflow=hidden;fillColor=none;top=0;left=0;bottom=0;right=0;pointerEvents=1;" vertex="1" parent="dJ_z5oDo-pDch933jmG_-246">
          <mxGeometry x="207" width="23" height="23" as="geometry">
            <mxRectangle width="23" height="23" as="alternateBounds" />
          </mxGeometry>
        </mxCell>
        <mxCell id="dJ_z5oDo-pDch933jmG_-257" value="&lt;font style=&quot;font-size: 21px;&quot;&gt;Initialization Vector (IV)&lt;/font&gt;" style="text;html=1;align=center;verticalAlign=middle;resizable=0;points=[];autosize=1;strokeColor=none;fillColor=none;" vertex="1" parent="1">
          <mxGeometry x="410.5" y="1230" width="240" height="40" as="geometry" />
        </mxCell>
        <mxCell id="dJ_z5oDo-pDch933jmG_-258" value="&lt;font style=&quot;font-size: 24px;&quot;&gt;... ...&lt;/font&gt;" style="text;html=1;align=center;verticalAlign=middle;resizable=0;points=[];autosize=1;strokeColor=none;fillColor=none;strokeWidth=4;fontSize=24;fontStyle=1" vertex="1" parent="1">
          <mxGeometry x="469" y="1177" width="70" height="40" as="geometry" />
        </mxCell>
        <mxCell id="dJ_z5oDo-pDch933jmG_-259" value="&lt;font style=&quot;font-size: 24px;&quot;&gt;... ...&lt;/font&gt;" style="text;html=1;align=center;verticalAlign=middle;resizable=0;points=[];autosize=1;strokeColor=none;fillColor=none;strokeWidth=4;fontSize=24;fontStyle=1" vertex="1" parent="1">
          <mxGeometry x="469" y="1440" width="70" height="40" as="geometry" />
        </mxCell>
      </root>
    </mxGraphModel>
  </diagram>
</mxfile>
